<svg xmlns="http://www.w3.org/2000/svg" viewBox="0 0 42 21" overflow="hidden" preserveAspectRatio="xMidYMid meet" id="eaf-bf5a:0"><!-- Created with Expressive Animator v1.3.1 | https://expressive.app/expressive-animator/ --><defs><clipPath id="eaf-bf5a:1"><rect x="0" y="0" width="42" height="21"></rect></clipPath><clipPath id="eaf-bf5a:2"><path d="m10.7778 0c0 5.9524 -4.8254 10.7778 -10.7778 10.7778c-5.9524 0 -10.7778 -4.8254 -10.7778 -10.7778c0 -5.9524 4.8254 -10.7778 10.7778 -10.7778c5.9524 0 10.7778 4.8254 10.7778 10.7778z" transform="matrix(0.9533 0 0 0.9533 21 10.5)"></path></clipPath></defs><g clip-path="url('#eaf-bf5a:1')" style="isolation: isolate;"><g><g clip-path="url('#eaf-bf5a:2')"><g><path fill="#000" d="m0 1480.4301c0 -177.78 0 -355.5601 0 -533.34c4.94 -9.19 9.55 -18.58 14.9 -27.52c4.58 -7.66 10.7 -13.76 20.56 -14.14c0.98 -0.04 1.94 -0.77 2.89 -1.23c7.32 -3.55 14.46 -7.53 21.98 -10.62c62.5 -25.64 125.15 -50.9 187.56 -76.74c22.41 -9.28 46.23 -15.96 64.82 -32.93c8.48 -7.74 17.87 -14.56 25.85 -22.77c7.88 -8.12 14.5 -17.48 21.67 -26.29c-0.32 -0.35 -0.65 -0.69 -0.97 -1.04c-22.09 7.66 -44.41 13.45 -68.08 9.56c-18.39 -3.02 -35.27 -9.21 -48.75 -22.67c-1.21 -1.21 -1.61 -3.22 -2.39 -4.86c1.63 -0.43 3.25 -1.2 4.88 -1.22c8.87 -0.1 17.18 -2.21 24.85 -6.66c5.44 -3.15 9.25 -7.72 11.75 -13.82c-33.57 1.62 -59.61 -6.93 -64.47 -21.16c9.06 0 18.25 1.24 26.98 -0.23c29.77 -4.99 42.93 -34.11 28 -60.27c-7.11 -12.46 -18.27 -20.59 -29.48 -28.73c-19.17 -13.91 -36.21 -29.73 -46.53 -51.63c-15.41 -32.72 -16.28 -66.72 -6.38 -100.68c16.13 -55.3 33.06 -110.39 50.71 -165.23c18.41 -57.21 47.38 -108.66 88.07 -153.18c20.67 -22.62 42.73 -43.66 69.71 -58.82c31.36 -17.63 64.36 -23.95 99.14 -12.41c11.59 3.84 22.29 10.36 33.86 15.88c48.05 -38.78 112 -38.76 161.12 -10.97c36.38 20.58 63.89 50.01 83.89 86.29c11.95 21.68 22.03 44.39 32.99 66.61c16.29 33.03 33.72 65.55 48.68 99.18c20.71 46.54 29.4 96.03 30.01 146.84c0.27 22.28 -3.47 44.08 -11.91 64.94c-11.4 28.17 -30.22 50.71 -52.65 70.61c-1.45 1.28 -3.22 2.49 -4.05 4.13c-8.53 16.72 -15.34 33.95 -14.1 53.25c1.15 17.74 9.13 31.17 25.77 38.35c5.74 2.48 12.08 3.56 18.92 5.5c-16.63 13.59 -35.33 13.43 -55.67 9.66c7.84 7.11 15.79 11.37 25.12 12.96c3.83 0.65 7.62 1.47 11.71 2.27c-13.35 26.5 -68.74 52.59 -118.23 24.97c4.28 5.95 8.75 11.75 13.38 17.43c17.74 21.72 38.56 39.42 65 49.78c5.93 2.32 11.85 4.66 17.78 6.97c68.38 26.62 136.81 53.1 205.1 79.95c16.91 6.65 33.7 13.81 49.91 21.99c17.75 8.96 27.86 23.95 27.88 44.28c0.11 173.51 0.0699 347.01 0.0699 520.52l0 7.17l-6.38 0c-273.15 0 -546.29 0 -819.44 0c-88.68 0 -177.36 0.05 -266.04 0.08l0.0099 -0.0101zm705.46 -1123.5701c0.14 -0.28 0.32 -0.48 0.27 -0.59c-0.46 -1.32 -0.94 -2.63 -1.44 -3.93c-12.66 -32.78 -20.12 -66.5 -18.55 -101.88c0.45 -10.12 1.08 -20.24 1.22 -30.36c0.38 -27.21 -10.25 -49.24 -32.8 -64.52c-30.8 -20.86 -65.67 -29.82 -102.37 -31.66c-11.01 -0.55 -22.17 2.49 -33.26 2.48c-18.72 -0.03 -37.16 1.86 -55.38 5.85c-57.56 12.62 -117.17 58.37 -119.88 142.32c-0.93 28.75 -2.87 57.49 -5.38 86.14c-2.19 24.93 -8.55 48.86 -21.74 70.58c-1.55 2.55 -2.49 5.9 -2.5 8.88c-0.1 45.87 6.02 91 17.28 135.38c10.55 41.61 27.26 80.17 57.69 111.66c23 23.81 48.55 44.29 77.69 60c27.22 14.68 56.91 16.46 87.02 14.91c32.81 -1.69 61.09 -14.79 86.21 -35.15c12.68 -10.28 24.6 -21.48 36.89 -32.24c17.38 -15.23 30.24 -33.77 40.06 -54.56c13.33 -28.21 22.03 -57.91 28.28 -88.38c6.94 -33.81 11.85 -67.85 11.3 -102.48c-0.03 -2.16 -0.38 -4.86 -1.68 -6.38c-12.88 -15.12 -22.87 -32.11 -31.46 -49.85c-3.4 -7.01 -8.3 -9.82 -15.22 -11.07c-29.51 -5.31 -59.23 -6.81 -89.13 -4.79c-9.91 0.67 -19.8 1.75 -29.72 2.29c-4.57 0.25 -9.02 -0.76 -10.86 -5.86c-1.61 -4.48 0.37 -9.87 5.25 -12.82c3.44 -2.07 7.3 -3.64 11.18 -4.75c25.99 -7.44 52.67 -9.23 79.55 -9.67c11.86 -0.2 22.35 2.81 31.47 10.44l0.0099 0.01zm-328.1 336.16c-0.61 0.08 -1.21 0.17 -1.82 0.25c1.26 14.23 1.74 28.59 3.98 42.66c2.84 17.84 13.02 32.43 23.82 46.39c20.06 25.93 44.69 47.15 70.59 66.91c20.3 15.49 40.06 31.76 63 43.51c5.78 2.96 10.14 3.12 15.27 -0.97c18.44 -14.72 37.43 -28.78 55.57 -43.86c22.43 -18.63 44.11 -38.2 61.31 -62c13.58 -18.79 25.74 -38.36 26.72 -62.64c0.44 -10.86 1.1 -21.71 1.66 -32.71c-14.64 13.57 -28.46 27.11 -43.08 39.73c-17.1 14.76 -35.4 28.04 -56.68 36.31c-26.57 10.31 -54.31 11.24 -82.34 9.4c-27.3 -1.79 -51.69 -11.13 -73.91 -27.01c-23.21 -16.58 -44.91 -34.81 -64.08 -55.98l-0.01 0.01zm24.76 272.81c0.16 17.07 71.93 344.65 76.35 355.53c0.81 -22.13 1.45 -44.5 2.5 -66.86c1.29 -27.6801 2.41 -55.39 4.56 -83.01c2.1 -27.05 5.08 -54.04 8.26 -80.99c3.25 -27.62 7.79 -55.08 17.06 -81.41c2.68 -7.62 2 -13.39 -2.19 -20.03c-8.95 -14.18 -17.2 -28.79 -25.94 -43.57c-1.71 1.42 -2.82 2.27 -3.84 3.22c-16.26 15.13 -32.55 30.22 -48.72 45.45c-8.12 7.65 -10.27 7.47 -15.45 -2.63c-4.18 -8.14 -8.06 -16.44 -12.58 -25.7l-0.01 0.0001zm-31.52 -227.54c-0.69 1.83 -1.21 3.11 -1.65 4.41c-7.08 20.78 -6.27 42.03 -2.54 63.1c4.13 23.32 9.11 46.51 14.42 69.59c4.32 18.75 8.33 37.76 14.95 55.74c6.93 18.83 16.79 36.59 25.42 54.79c0.71 1.49 1.83 2.78 2.95 4.46c33.65 -33.08 67.5 -64.89 107.98 -88.81c-0.49 -0.41 -0.97 -0.94 -1.56 -1.28c-43 -24.52 -81.05 -55.48 -115.74 -90.53c-19.94 -20.15 -37.05 -42.5 -44.24 -71.48l0.0099 0.0101zm286.85 250.19c2.29 -4.04 4.06 -7.28 5.95 -10.45c9.99 -16.76 13.19 -35.77 17.43 -54.32c10.25 -44.81 23.33 -89.05 27.78 -135.07c1.69 -17.45 -1.25 -34.26 -6.6 -52.09c-7.38 28.49 -22.46 51.33 -40.76 72.07c-29.88 33.86 -64.35 62.57 -101.39 88.27c-1.94 1.35 -3.88 2.7 -6.17 4.29c38.87 24.31 71.43 54.89 103.76 87.29l-0.0001 0.0101zm-56.59 311.9501l0.74 0.37c21.67 -102.35 43.34 -204.7 65.01 -307.05c-1.44 0.26 -1.86 0.8 -2.2 1.39c-3.91 6.82 -5.18 6.96 -10.86 1.44c-10.84 -10.51 -21.6 -21.11 -32.64 -31.41c-7.72 -7.2 -15.86 -13.97 -24.45 -21.5c-8.67 18.98 -16.97 36.96 -25.04 55.05c-0.74 1.66 -0.35 4.06 0.11 5.97c3.48 14.43 8.19 28.66 10.46 43.27c4.4 28.35 8.14 56.84 10.86 85.4c2.64 27.73 3.98 55.61 5.28 83.45c1.3 27.86 1.85 55.75 2.73 83.62zm181.16 -825.8801c-1.36 11.17 -3.87 21.63 -1.6 32.59c1.31 6.33 -1.77 12.24 -6.2 16.92c-3.03 3.2 -6.33 6.33 -10.03 8.66c-3.67 2.32 -5.18 5.3 -6 9.31c-2.03 9.88 -4.34 19.71 -6.61 29.54c-1.29 5.56 -0.55 6.85 5.23 6.33c12.49 -1.14 22.59 -7.45 28.75 -17.89c11.98 -20.29 17.36 -42.86 19.39 -66.22c0.12 -1.43 -0.78 -3.54 -1.91 -4.38c-6.78 -5.02 -13.76 -9.77 -21.04 -14.86l0.02 0zm-494.03 3.99c-5.3 4.36 -11.82 9.87 -18.51 15.17c-2.57 2.04 -3.33 4.24 -2.46 7.36c3.88 13.99 6.99 28.24 11.73 41.92c2.85 8.23 7.44 16.13 12.56 23.23c7.01 9.7 17.34 13.82 29.37 13.87c-2.72 -12.35 -5.73 -24.04 -7.72 -35.89c-1.21 -7.18 -4.07 -12.14 -10.45 -15.98c-8.95 -5.4 -14.44 -13.14 -11.52 -24.49c0.21 -0.82 0.04 -1.78 -0.08 -2.65c-1.1 -8.59 -2.23 -17.17 -2.93 -22.54l0.01 0z" transform="matrix(0.0194 0 0 0.0194 10.361 0.1528)"></path><path fill="#fff" d="m705.46 356.86c-9.12 -7.63 -19.62 -10.64 -31.47 -10.44c-26.88 0.44 -53.56 2.23 -79.55 9.67c-3.87 1.11 -7.74 2.68 -11.18 4.75c-4.88 2.94 -6.86 8.34 -5.25 12.82c1.84 5.1 6.28 6.12 10.86 5.86c9.92 -0.55 19.81 -1.62 29.72 -2.29c29.9 -2.02 59.61 -0.53 89.13 4.79c6.92 1.25 11.82 4.06 15.22 11.07c8.59 17.73 18.58 34.73 31.46 49.85c1.29 1.52 1.64 4.22 1.68 6.38c0.55 34.63 -4.36 68.67 -11.3 102.48c-6.25 30.47 -14.96 60.16 -28.28 88.38c-9.82 20.79 -22.68 39.33 -40.06 54.56c-12.29 10.76 -24.21 21.96 -36.89 32.24c-25.12 20.36 -53.41 33.46 -86.21 35.15c-30.12 1.55 -59.81 -0.23 -87.02 -14.91c-29.13 -15.71 -54.68 -36.19 -77.69 -60c-30.43 -31.5 -47.13 -70.05 -57.69 -111.66c-11.26 -44.38 -17.38 -89.52 -17.28 -135.38c0 -2.98 0.95 -6.33 2.5 -8.88c13.19 -21.72 19.55 -45.65 21.74 -70.58c2.51 -28.65 4.46 -57.4 5.38 -86.14c2.71 -83.95 62.32 -129.7 119.88 -142.32c18.23 -4 36.66 -5.88 55.38 -5.85c11.09 0.02 22.24 -3.03 33.26 -2.48c36.7 1.84 71.57 10.79 102.37 31.66c22.55 15.28 33.18 37.31 32.8 64.52c-0.14 10.12 -0.77 20.24 -1.22 30.36c-1.57 35.37 5.89 69.1 18.55 101.88c0.5 1.3 0.98 2.62 1.44 3.93c0.04 0.12 -0.14 0.31 -0.27 0.59l-0.0099 -0.01zm-282.02 19c12.93 0.83 25.85 1.76 38.78 2.47c6.53 0.36 13.18 1.03 19.59 0.17c2.97 -0.4 6.92 -3.68 7.78 -6.48c0.76 -2.48 -1.29 -7.13 -3.59 -8.97c-3.87 -3.1 -8.7 -5.56 -13.51 -6.86c-28.13 -7.59 -56.9 -9.85 -85.94 -9.77c-5.41 0.01 -10.1 1.25 -14.47 4.27c-11.84 8.18 -21.88 18.09 -29.12 30.63c-0.8 1.38 -0.85 3.2 -1.24 4.82c1.64 0.05 3.42 0.55 4.9 0.09c25.04 -7.71 50.79 -9.67 76.83 -10.35l-0.01 -0.02zm21.68 45.27c8.76 2.48 15.6 7.28 22.19 12.7c1.54 1.27 4.16 1.22 6.29 1.77c-0.27 -2.26 0.28 -5.26 -0.97 -6.64c-3.89 -4.3 -7.95 -8.81 -12.84 -11.76c-17.71 -10.68 -37.03 -11.35 -56.66 -7.12c-10.54 2.27 -20.03 7.22 -27.74 14.94c-1.21 1.21 -1.17 3.67 -1.71 5.56c2.05 0.17 4.38 1.03 6.11 0.36c3.94 -1.55 7.48 -4.07 11.36 -5.78c4.91 -2.17 10 -3.93 16.4 -6.4c-4.52 11.01 -1.48 18.4 6.08 24.05c7.13 5.33 14.9 5.26 22.54 1.08c8.96 -4.89 10.72 -12.97 8.94 -22.75l0.01 -0.0099zm157.84 222.11c2.17 -1.61 6.18 -3.05 6.69 -5.29c1.11 -4.83 -3.52 -4.86 -6.98 -5.78c-10.24 -2.73 -20.53 -5.37 -30.54 -8.82c-8.2 -2.83 -16.21 -4.12 -24.34 -0.71c-8.39 3.52 -16.44 2.41 -24.91 0.05c-4.9 -1.37 -10.62 -1.91 -15.52 -0.79c-13.92 3.17 -27.64 7.27 -41.35 11.3c-1.6 0.47 -3.97 3.12 -3.7 4.14c0.5 1.83 2.51 4.09 4.29 4.53c2.81 0.69 6.05 0.47 8.95 -0.14c9.19 -1.93 18.28 -1.71 27.46 0.05c14.5 2.77 29.09 4.46 43.92 3.28c18.25 -1.45 36.21 -8.54 56.02 -1.8l0.0099 -0.02zm19.45 -222.34c-0.2 17.46 7.48 26.73 21.33 25.92c5.74 -0.34 10.68 -2.58 14.37 -7.07c4.65 -5.65 4.97 -12.18 3.67 -19.73c8.18 3.1 15.84 6.93 23.72 10.27c2.08 0.88 4.79 0.27 7.21 0.34c-0.89 -2.21 -1.19 -5.07 -2.78 -6.52c-8.32 -7.56 -18.25 -12.16 -29.28 -14.23c-17.5 -3.28 -34.79 -2.99 -50.58 6.22c-5.16 3.01 -9.29 8.08 -13.2 12.78c-1.08 1.3 0.3 4.67 0.56 7.09c1.88 -0.84 4.21 -1.23 5.56 -2.59c5.56 -5.6 11.72 -10.06 19.41 -12.47l0.0101 -0.01zm-56.05 144.77c1.9 0.23 2.75 0.61 3.29 0.35c1.91 -0.93 3.71 -2.08 5.55 -3.15c-1.22 -1.71 -2.1 -4.22 -3.75 -4.93c-2.27 -0.97 -5.37 -1.34 -7.67 -0.6c-5 1.62 -9.86 3.82 -14.52 6.29c-9.25 4.91 -18.09 5.41 -26.92 -0.97c-2.84 -2.06 -5.99 -3.83 -9.22 -5.19c-5.45 -2.27 -11.17 -2.65 -16.32 0.61c-1.48 0.94 -2.59 3.78 -2.38 5.58c0.12 1.02 3.49 2.71 4.98 2.35c7.23 -1.71 13.68 -0.07 19.82 3.55c10.78 6.35 21.64 6.99 32.76 0.87c2.47 -1.36 5.13 -2.42 7.81 -3.29c2.49 -0.8 5.12 -1.17 6.57 -1.48l0 0.01zm-33.52 105.47c0 -0.16 0.01 -0.32 0.02 -0.48c3.91 0 7.83 0.25 11.72 -0.05c7.05 -0.55 14.13 -1.15 21.07 -2.4c1.59 -0.29 2.69 -3.29 4.02 -5.05c-2.09 -0.88 -4.41 -2.84 -6.23 -2.46c-18.56 3.92 -37 3.39 -55.48 -0.37c-4.49 -0.91 -9.01 1.45 -8.79 4.61c0.32 4.63 4.39 4.53 7.63 4.76c8.67 0.63 17.37 0.98 26.05 1.44l-0.01 0zm-22.05 -236.21c0.25 0.03 0.5 0.06 0.74 0.09c-1.5 11.42 -2.75 22.89 -4.58 34.25c-1.49 9.26 -3.82 18.38 -5.44 27.63c-0.29 1.66 1.08 3.61 1.69 5.43c1.48 -1.26 3.5 -2.24 4.31 -3.83c1.09 -2.14 1.4 -4.74 1.77 -7.18c3.02 -19.6 6.01 -39.21 8.9 -58.84c0.31 -2.08 0.48 -4.46 -0.25 -6.32c-0.73 -1.87 -2.66 -3.26 -4.07 -4.87c-1.03 1.7 -2.61 3.3 -2.95 5.13c-0.5 2.75 -0.13 5.66 -0.13 8.5l0.01 0.01zm-39.49 111.95c0.53 12.98 4.7 20.62 12.83 25.92c2.76 1.81 6.09 2.02 7.85 -1.33c2.01 -3.83 -1.71 -4.19 -3.9 -5.87c-3.34 -2.57 -7.68 -5.72 -8.44 -9.3c-1.11 -5.21 -0.03 -11.17 1.3 -16.52c0.95 -3.78 4.1 -6.96 5.79 -10.63c0.69 -1.5 0.1 -3.59 0.1 -5.4c-1.73 0.25 -3.65 0.14 -5.14 0.87c-1.32 0.65 -2.6 2.08 -3.16 3.47c-2.89 7.13 -5.54 14.36 -7.23 18.8l0 -0.0099zm128.53 0.03c-0.93 -2.94 -2.2 -8.3 -4.34 -13.27c-1.28 -2.97 -3.63 -5.71 -6.12 -7.82c-1.11 -0.94 -3.74 -0.09 -5.69 -0.06c0.31 1.75 0.43 3.56 1.01 5.22c0.32 0.91 1.45 1.52 2.13 2.34c8.57 10.37 9.17 28.36 -5.39 32.91c-3.24 1.01 -3.39 5.11 -0.28 6.39c1.88 0.78 5.06 0.5 6.73 -0.65c7.79 -5.36 11.77 -12.99 11.96 -25.06l-0.0099 0.0001z" transform="matrix(0.0194 0 0 0.0194 10.361 0.1528)"></path><path fill="#fff" d="m377.36 693.02c19.17 21.17 40.87 39.4 64.08 55.98c22.22 15.88 46.61 25.21 73.91 27.01c28.04 1.84 55.78 0.91 82.34 -9.4c21.28 -8.26 39.57 -21.54 56.68 -36.31c14.62 -12.62 28.44 -26.17 43.08 -39.73c-0.57 10.99 -1.22 21.84 -1.66 32.71c-0.98 24.28 -13.14 43.85 -26.72 62.64c-17.2 23.79 -38.89 43.36 -61.31 62c-18.14 15.08 -37.13 29.14 -55.57 43.86c-5.13 4.09 -9.49 3.93 -15.27 0.97c-22.94 -11.75 -42.7 -28.02 -63 -43.51c-25.9 -19.76 -50.52 -40.98 -70.59 -66.91c-10.8 -13.96 -20.98 -28.55 -23.82 -46.39c-2.24 -14.08 -2.72 -28.43 -3.98 -42.66c0.61 -0.08 1.21 -0.17 1.82 -0.25l0.01 -0.0099z" transform="matrix(0.0194 0 0 0.0194 10.361 0.1528)"></path><path fill="#fff" d="m402.12 965.83c4.52 9.26 8.4 17.56 12.58 25.7c5.19 10.1 7.33 10.29 15.45 2.63c16.17 -15.23 32.47 -30.32 48.72 -45.45c1.02 -0.95 2.14 -1.8 3.84 -3.22c8.74 14.78 16.99 29.39 25.94 43.57c4.19 6.64 4.87 12.41 2.19 20.03c-9.27 26.3199 -13.81 53.79 -17.06 81.41c-3.17 26.95 -6.15 53.9399 -8.26 80.99c-2.15 27.62 -3.26 55.33 -4.56 83.01c-1.05 22.36 -1.69 44.74 -2.5 66.86c-4.42 -10.88 -76.19 -338.47 -76.35 -355.53l0.01 -0.0001z" transform="matrix(0.0194 0 0 0.0194 10.361 0.1528)"></path><path fill="#fff" d="m370.6 738.29c7.19 28.98 24.3 51.33 44.24 71.48c34.69 35.05 72.74 66.01 115.74 90.53c0.59 0.34 1.07 0.87 1.56 1.28c-40.49 23.93 -74.33 55.73 -107.98 88.81c-1.12 -1.67 -2.24 -2.97 -2.95 -4.46c-8.63 -18.2 -18.49 -35.96 -25.42 -54.79c-6.62 -17.98 -10.63 -36.99 -14.95 -55.74c-5.31 -23.08 -10.29 -46.27 -14.42 -69.59c-3.73 -21.08 -4.54 -42.32 2.54 -63.1c0.44 -1.31 0.96 -2.59 1.65 -4.41l-0.0099 -0.01z" transform="matrix(0.0194 0 0 0.0194 10.361 0.1528)"></path><path fill="#fff" d="m657.45 988.48c-32.33 -32.4 -64.89 -62.98 -103.76 -87.29c2.29 -1.59 4.23 -2.94 6.17 -4.29c37.04 -25.7 71.51 -54.41 101.39 -88.27c18.3 -20.75 33.38 -43.58 40.76 -72.07c5.35 17.83 8.28 34.63 6.6 52.09c-4.44 46.01 -17.52 90.26 -27.78 135.07c-4.24 18.55 -7.44 37.56 -17.43 54.32c-1.89 3.17 -3.66 6.41 -5.95 10.45l0.0001 -0.0101z" transform="matrix(0.0194 0 0 0.0194 10.361 0.1528)"></path><path fill="#fff" d="m600.86 1300.4301c-0.88 -27.88 -1.43 -55.77 -2.73 -83.62c-1.3 -27.84 -2.64 -55.71 -5.28 -83.45c-2.72 -28.5601 -6.46 -57.05 -10.86 -85.4c-2.27 -14.61 -6.98 -28.84 -10.46 -43.27c-0.46 -1.91 -0.85 -4.31 -0.11 -5.97c8.07 -18.09 16.37 -36.08 25.04 -55.05c8.6 7.53 16.73 14.29 24.45 21.5c11.04 10.3 21.8 20.9 32.64 31.41c5.68 5.51 6.96 5.38 10.86 -1.44c0.34 -0.59 0.76 -1.13 2.2 -1.39c-21.67 102.35 -43.34 204.7 -65.01 307.05l-0.74 -0.37z" transform="matrix(0.0194 0 0 0.0194 10.361 0.1528)"></path><path fill="#fff" d="m782.02 474.55c7.28 5.09 14.26 9.84 21.04 14.86c1.13 0.84 2.03 2.95 1.91 4.38c-2.03 23.36 -7.41 45.93 -19.39 66.22c-6.16 10.44 -16.26 16.75 -28.75 17.89c-5.78 0.53 -6.52 -0.76 -5.23 -6.33c2.27 -9.83 4.58 -19.66 6.61 -29.54c0.82 -4.01 2.33 -6.99 6 -9.31c3.7 -2.33 7 -5.46 10.03 -8.66c4.43 -4.68 7.51 -10.58 6.2 -16.92c-2.27 -10.95 0.24 -21.42 1.6 -32.59l-0.02 -0.0001z" transform="matrix(0.0194 0 0 0.0194 10.361 0.1528)"></path><path fill="#fff" d="m287.99 478.54c0.7 5.36 1.83 13.95 2.93 22.54c0.11 0.88 0.29 1.83 0.08 2.65c-2.92 11.36 2.57 19.09 11.52 24.49c6.37 3.85 9.24 8.8 10.45 15.98c2 11.85 5.01 23.54 7.72 35.89c-12.03 -0.05 -22.36 -4.17 -29.37 -13.87c-5.12 -7.1 -9.71 -15 -12.56 -23.23c-4.74 -13.69 -7.85 -27.94 -11.73 -41.92c-0.87 -3.13 -0.11 -5.33 2.46 -7.36c6.68 -5.3 13.2 -10.8 18.51 -15.17l-0.01 -0.0001z" transform="matrix(0.0194 0 0 0.0194 10.361 0.1528)"></path><path fill="#000" d="m423.44 375.86c-26.04 0.69 -51.79 2.65 -76.83 10.35c-1.48 0.46 -3.26 -0.04 -4.9 -0.09c0.4 -1.62 0.44 -3.43 1.24 -4.82c7.24 -12.54 17.27 -22.45 29.12 -30.63c4.36 -3.01 9.05 -4.25 14.47 -4.27c29.04 -0.08 57.82 2.18 85.94 9.77c4.81 1.3 9.64 3.76 13.51 6.86c2.3 1.84 4.35 6.49 3.59 8.97c-0.86 2.79 -4.81 6.08 -7.78 6.48c-6.41 0.86 -13.05 0.19 -19.59 -0.17c-12.93 -0.71 -25.86 -1.63 -38.78 -2.47l0.01 0.02z" transform="matrix(0.0194 0 0 0.0194 10.361 0.1528)"></path><path fill="#000" d="m445.12 421.13c-21.47 -5.04 -21.47 -5.04 -37.56 -2.38c-6.41 2.48 -11.49 4.23 -16.4 6.4c-3.88 1.72 -7.43 4.24 -11.36 5.78c-1.72 0.68 -4.05 -0.19 -6.11 -0.36c0.54 -1.88 0.5 -4.35 1.71 -5.56c7.71 -7.72 17.2 -12.67 27.74 -14.94c19.62 -4.22 38.95 -3.55 56.66 7.12c4.89 2.95 8.96 7.46 12.84 11.76c1.24 1.38 0.69 4.38 0.97 6.64c-2.12 -0.56 -4.75 -0.51 -6.29 -1.77c-6.59 -5.42 -13.43 -10.22 -22.19 -12.7l-0.01 0.0099z" transform="matrix(0.0194 0 0 0.0194 10.361 0.1528)"></path><path fill="#000" d="m602.96 643.24c-19.81 -6.73 -37.77 0.35 -56.02 1.8c-14.83 1.18 -29.42 -0.51 -43.92 -3.28c-9.18 -1.75 -18.27 -1.98 -27.46 -0.05c-2.9 0.61 -6.14 0.83 -8.95 0.14c-1.78 -0.44 -3.79 -2.7 -4.29 -4.53c-0.28 -1.02 2.09 -3.67 3.7 -4.14c13.71 -4.03 27.43 -8.14 41.35 -11.3c4.89 -1.11 10.61 -0.57 15.52 0.79c8.46 2.36 16.51 3.47 24.91 -0.05c8.13 -3.4 16.14 -2.12 24.34 0.71c10.01 3.45 20.3 6.09 30.54 8.82c3.46 0.92 8.08 0.95 6.98 5.78c-0.51 2.24 -4.52 3.68 -6.69 5.29l-0.0099 0.02zm-28.5 -9.99c-7.56 -3 -15.34 -5.69 -23.55 -2.95c-10.08 3.37 -19.95 3.5 -30.14 0.23c-7.61 -2.44 -14.87 -1.11 -22.15 2.81c25.31 6.15 50.48 6.06 75.84 -0.09l0 0.0001z" transform="matrix(0.0194 0 0 0.0194 10.361 0.1528)"></path><path fill="#000" d="m622.41 420.9c-7.69 2.41 -13.86 6.88 -19.41 12.47c-1.35 1.36 -3.68 1.76 -5.56 2.59c-0.25 -2.42 -1.64 -5.78 -0.56 -7.09c3.91 -4.7 8.03 -9.77 13.2 -12.78c15.79 -9.2 33.08 -9.5 50.58 -6.22c11.02 2.07 20.95 6.67 29.28 14.23c1.59 1.44 1.89 4.31 2.78 6.52c-2.42 -0.07 -5.13 0.54 -7.21 -0.34c-7.87 -3.34 -15.54 -7.17 -23.72 -10.27q-27.234 -2.81 -39.3801 0.89z" transform="matrix(0.0194 0 0 0.0194 10.361 0.1528)"></path><path fill="#000" d="m566.36 565.67c-1.45 0.31 -4.08 0.68 -6.57 1.48c-2.68 0.87 -5.35 1.93 -7.81 3.29c-11.13 6.12 -21.98 5.48 -32.76 -0.87c-6.14 -3.62 -12.59 -5.26 -19.82 -3.55c-1.49 0.35 -4.86 -1.33 -4.98 -2.35c-0.21 -1.8 0.9 -4.64 2.38 -5.58c5.15 -3.26 10.88 -2.88 16.32 -0.61c3.24 1.35 6.38 3.13 9.22 5.19c8.83 6.38 17.67 5.88 26.92 0.97c4.65 -2.47 9.52 -4.67 14.52 -6.29c2.3 -0.74 5.4 -0.37 7.67 0.6c1.65 0.71 2.53 3.22 3.75 4.93c-1.84 1.07 -3.64 2.22 -5.55 3.15c-0.53 0.26 -1.38 -0.12 -3.29 -0.35l0.0001 -0.01z" transform="matrix(0.0194 0 0 0.0194 10.361 0.1528)"></path><path fill="#000" d="m532.84 671.14c-8.68 -0.46 -17.38 -0.81 -26.05 -1.44c-3.23 -0.23 -7.31 -0.13 -7.63 -4.76c-0.22 -3.16 4.3 -5.52 8.79 -4.61c18.48 3.76 36.93 4.29 55.48 0.37c1.82 -0.39 4.14 1.58 6.23 2.46c-1.33 1.75 -2.43 4.76 -4.02 5.05c-6.94 1.25 -14.02 1.85 -21.07 2.4c-3.88 0.31 -7.81 0.05 -11.72 0.05c0 0.16 -0.01 0.32 -0.02 0.48l0.01 0z" transform="matrix(0.0194 0 0 0.0194 10.361 0.1528)"></path><path fill="#000" d="m510.79 434.93c0 -2.84 -0.37 -5.75 0.13 -8.5c0.34 -1.83 1.92 -3.43 2.95 -5.13c1.41 1.6 3.34 3 4.07 4.87c0.73 1.86 0.56 4.25 0.25 6.32c-2.9 19.62 -5.88 39.23 -8.9 58.84c-0.38 2.44 -0.69 5.04 -1.77 7.18c-0.81 1.6 -2.83 2.58 -4.31 3.83c-0.61 -1.82 -1.98 -3.77 -1.69 -5.43c1.62 -9.24 3.95 -18.37 5.44 -27.63c1.83 -11.37 3.08 -22.83 4.58 -34.25c-0.25 -0.03 -0.5 -0.06 -0.74 -0.09l-0.01 -0.01z" transform="matrix(0.0194 0 0 0.0194 10.361 0.1528)"></path><path fill="#000" d="m471.3 546.88c1.68 -4.43 4.34 -11.66 7.23 -18.8c0.56 -1.38 1.84 -2.81 3.16 -3.47c1.5 -0.74 3.41 -0.62 5.14 -0.87c0 1.82 0.59 3.91 -0.1 5.4c-1.69 3.67 -4.85 6.85 -5.79 10.63c-1.34 5.34 -2.41 11.31 -1.3 16.52c0.76 3.58 5.1 6.73 8.44 9.3c2.19 1.69 5.91 2.05 3.9 5.87c-1.76 3.36 -5.09 3.14 -7.85 1.33c-8.12 -5.3 -12.3 -12.94 -12.83 -25.92l0 0.0099z" transform="matrix(0.0194 0 0 0.0194 10.361 0.1528)"></path><path fill="#000" d="m599.83 546.91c-0.19 12.07 -4.17 19.7 -11.96 25.06c-1.67 1.15 -4.84 1.42 -6.73 0.65c-3.11 -1.28 -2.95 -5.38 0.28 -6.39c14.56 -4.55 13.96 -22.54 5.39 -32.91c-0.68 -0.82 -1.81 -1.42 -2.13 -2.34c-0.58 -1.66 -0.7 -3.47 -1.01 -5.22c1.94 -0.04 4.58 -0.89 5.69 0.06c2.49 2.11 4.84 4.85 6.12 7.82c2.15 4.97 3.41 10.33 4.34 13.27l0.0099 -0.0001z" transform="matrix(0.0194 0 0 0.0194 10.361 0.1528)"></path><path fill="#fff" d="m574.46 633.25c-25.36 6.15 -50.53 6.24 -75.84 0.09c7.28 -3.92 14.54 -5.26 22.15 -2.81c10.19 3.27 20.06 3.14 30.14 -0.23c8.21 -2.75 15.99 -0.05 23.55 2.95l0 -0.0001z" transform="matrix(0.0194 0 0 0.0194 10.361 0.1528)"></path><g transform="translate(0.0049 0.0609)" id="eaf-bf5a:3"><ellipse fill="#000" rx="0.3978" ry="0.3978" transform="translate(22.8982 8.5216)"></ellipse><ellipse fill="#000" rx="0.3978" ry="0.3978" transform="translate(18.6209 8.4854)"></ellipse></g></g></g></g></g><script>!function(){"use strict";function t(t,n,e,i,r,s,u){let o=t;for(let e=0;e&lt;8;e++){const e=n*o*o*o+i*o*o+s*o-t;if(Math.abs(e)&lt;=5e-5)break;const r=3*n*o*o+2*i*o+s;o-=2*e*r/(2*r*r-e*(6*n*o+2*i))}return((e*o+r)*o+u)*o}const n=[null,n=&gt;t(n,-.74,-2,.48,3,1.26,0),n=&gt;t(n,-.74,-2,1.74,3,0,0),n=&gt;t(n,.52,-2,-.78,3,1.26,0),t=&gt;t&gt;0?1:0,t=&gt;t&lt;1?0:1,t=&gt;t&lt;.5?0:1];let e;function i(t){if(!t)return null;if("number"==typeof t)return n[t];if(!e)return null;let i=t.shift();return e[i]?e[i](...t):null}function r(t){return(...n)=&gt;{return(e=t(...n))?t=&gt;1-e(1-t):null;var e}}function s(t,n){const e=(1+(n+=1.0001))/(1-n),i=1-(1+n)*n**t/2;return r=&gt;{const s=Math.floor(Math.log(1-r*i)/Math.log(n));return(1-(2*(r*i-1)/((1-n)*n**s)+e)**2)/n**(t-s)}}function u(t=1.7){return n=&gt;n*n*(n+t*(n-1))}function o(t,n){if(t=2*Math.PI*(t+.25),0==n)return n=&gt;n*Math.sin(n*t);const e=Math.exp(n)-1;return i=&gt;(Math.exp(n*i)-1)*Math.sin(i*t)/e}function l(...t){if(0===t.length)return null;const n=t.length;return e=&gt;{if(e&lt;0)return 0;let i=0,r=0;for(let s=0;s&lt;n;s+=2){const n=t[s],u=t[s+1];if(e===n)return u;if(e&lt;n)return r+(u-r)*(e-i)/(n-i);i=n,r=u}return e&gt;=1?1:r+(1-r)*(e-i)/(1-i)}}function h(n,e,i,r){if(c(n,e)&amp;&amp;c(i,r))return null;const s=1+3*(n-i),u=1+3*(e-r),o=3*(i-2*n),l=3*(r-2*e),h=3*n,f=3*e;return c(o,0)&amp;&amp;c(h,0)?t=&gt;(t=Math.pow(t/s,1/3),((u*t+l)*t+f)*t):n=&gt;t(n,s,u,o,l,h,f)}function c(t,n){return Math.abs(t-n)&lt;=1e-6}function f(t,n){return t[0]-n[0]}function a(t,n){return!n||t&gt;=n[0]&amp;&amp;t&lt;=n[1]}function p(t,n,e){return!t||t[0]&lt;=0&amp;&amp;t[1]&gt;=n?null:(1!==e&amp;&amp;(t[0]/=e,t[1]/=e),t)}function d(t){return t}class g{constructor(t,n,e,i,r){this.d=t,this.m=e,this.vis=i,i&amp;&amp;null!=r?this.h=r:1===n.length&amp;&amp;(this.value=n[0][1],n=null),this.k=n}get isAnimated(){return null!=(this.vis||this.k)}update(t){if(!this.k)return!1;const n=null==this.h||a(t,this.vis)?function(t,n,e){if(t&lt;=n[0][0])return n[0][1];const i=n.length-1;if(t&gt;n[i][0])return n[i][1];let r=1;for(;r&lt;i&amp;&amp;!(t&lt;=n[r][0]);r++);const s=n[r-1],u=n[r];return s[0]===t?s[1]:u[0]===t?u[1]:(t=(t-s[0])/(u[0]-s[0]),e(s[1],u[1],s[2]?s[2](t):t))}(t,this.k,this.d[0]):this.h;return!(void 0!==this.value&amp;&amp;this.d[2](n,this.value)||(this.value=n,this.s=null,0))}toString(){return this.s??=this.d[1](this.value,this.m)}}class M{constructor(t,n,e,i){this.d=t,this.m=e,this.c=new Array(n.length),this.vis=i;const r=[],s=this.d[3];for(let t=0;t&lt;n.length;t++)n[t].isAnimated?r.push([t,n[t]]):this.c[t]=s?n[t].toString():n[t].value;0===r.length?(this.a=null,this.value=this.d[0](this.c,this.m)):this.a=r}get isAnimated(){return null!=(this.vis||this.a)}update(t){if(null==this.a)return!1;let n=!1;const e=this.c;if(this.d[3])for(const[i,r]of this.a)r.update(t)&amp;&amp;(e[i]=r.toString(),n=!0);else for(const[i,r]of this.a)r.update(t)&amp;&amp;(e[i]=r.value,n=!0);if(!n)return!1;const i=this.d[0](e,this.m);return!(void 0!==this.value&amp;&amp;this.d[2](i,this.value)||(this.value=i,this.s=null,0))}toString(){return this.s??=this.d[1](this.value,this.m)}}class ${constructor(t,n){this.vis=n,this.p=t;const e=this.l=[];let i=!1;for(const n of t)if(n.isAnimated)i=!0;else{const t=n.toString();t&amp;&amp;e.push(t)}i?(this.a=!0,this.i=null):(this.a=!1,e.length?(this.i=e.join(" "),e.splice(0)):this.i=null,this.l=null),this.isAnimated=i||null!=n}update(t){let n=null;if(a(t,this.vis))if(this.a){const e=this.l;for(const n of this.p){if(!a(t,n.vis))continue;n.update(t);const i=n.toString();i&amp;&amp;e.push(i)}e.length&amp;&amp;(n=e.join(" "),e.splice(0))}else n=this.i;return n!==this.value&amp;&amp;(this.value=n,!0)}toString(){return this.value||"none"}}const m=[t=&gt;1===t?null:[t,0,0,0,0,0,t,0,0,0,0,0,t,0,0,0,0,0,1,0],t=&gt;{if(1===t)return null;const n=(1-t)/2;return[t,0,0,0,n,0,t,0,0,n,0,0,t,0,n,0,0,0,1,0]},t=&gt;1===t?null:[.213+.787*t,.715-.715*t,.072-.072*t,0,0,.213-.213*t,.715+.285*t,.072-.072*t,0,0,.213-.213*t,.715-.715*t,.072+.928*t,0,0,0,0,0,1,0],t=&gt;{if(t%360==0)return null;t*=Math.PI/180;const n=Math.cos(t),e=Math.sin(t);return[.787*n+.213*(1-e),.715*(1-n-e),.072*(1-n)+.928*e,0,0,.213*(1-n)+.143*e,.715+.285*n+.14*e,.072*(1-n)-.283*e,0,0,.213*(1-n)-.787*e,.715*(1-n+e),.928*n+.072*(1+e),0,0,0,0,0,1,0]},t=&gt;{if(!t)return null;const n=t;return[t=-2*t+1,0,0,0,n,0,t,0,0,n,0,0,t,0,n,0,0,0,1,0]},t=&gt;t?[.2126+.7874*(t=1-t),.7152-.7152*t,.0722-.0722*t,0,0,.2126-.2126*t,.7152+.2848*t,.0722-.0722*t,0,0,.2126-.2126*t,.7152-.7152*t,.0722+.9278*t,0,0,0,0,0,1,0]:null,t=&gt;t?[.393+.607*(t=1-t),.769-.769*t,.189-.189*t,0,0,.349-.349*t,.686+.314*t,.168-.168*t,0,0,.272-.272*t,.534-.534*t,.131+.869*t,0,0,0,0,0,1,0]:null],v=new Array(20).fill(0);function S(t,n,e){t===e&amp;&amp;(t=t.slice()),n===e&amp;&amp;(n=n.slice());let i=0;for(let r=0;r&lt;20;r+=5){for(let s=0;s&lt;4;s++)e[i++]=t[r+0]*n[s+0]+t[r+1]*n[s+5]+t[r+2]*n[s+10]+t[r+3]*n[s+15];e[i++]=t[r+0]*n[4]+t[r+1]*n[9]+t[r+2]*n[14]+t[r+3]*n[19]+t[r+4]}}v[0]=v[6]=v[12]=v[18]=1;const y=[1,-1,0,0,-1,1,0,0],w=[0,1,1,1,1,0,0,0],b=[0,1,1,2,2,3,3,0],_=Math.PI/180,A=Math.PI/2,x=.47829;function I(t,n,e,i,r,s,u,o,l){const h=(new DOMMatrix).translateSelf(t,n).rotateSelf(e);return(s%=360)&amp;&amp;((u%=360)?h.rotateSelf(-u).skewXSelf(-s).rotateSelf(u):h.skewXSelf(-s)),h.scaleSelf(i,r).translateSelf(-o,-l)}function k(t,n=0,e=1){return t&lt;=n?n:t&gt;=e?e:t}function P(t,n,e){return t+(n-t)*e}function j(t,n,e){return Math.max(0,t+(n-t)*e)}function E(t,n,e){return k(t+(n-t)*e)}function L(t,n,e){return e&lt;.5?t:n}function Z(t,n,e){if(t.length!==n.length)return L(t,n,e);const i=[];for(let r=0;r&lt;t.length;r++)i[r]=P(t[r],n[r],e);return i}function C(t,n,e){if(t.length!==n.length)return L(t,n,e);const i=[];for(let r=0;r&lt;t.length;r++)i[r]=Math.max(0,P(t[r],n[r],e));return i}function G(t,n,e){return Math.round(k(t+(n-t)*e,0,255))}function O(t){return Number.isInteger(t)?t.toString():(Math.round(1e9*t)/1e9).toString()}function V(t){return t.map(O).join(" ")}const F=/\*/g;let N,q;function B(){return O(N[q++])}function D(){return N[q++]}function T(t,n){return q=0,N=t,n.replace(F,B)}function X(t,n){return n.replace("*",O(t))}function z(t){return`matrix(${t.a} ${t.b} ${t.c} ${t.d} ${t.e} ${t.f})`}function J(t,n){return t===n}function U(t,n){if(t===n)return!0;if(t.length!==n.length)return!1;for(let e=0;e&lt;t.length;e++)if(t[e]!==n[e])return!1;return!0}function H(t,n){return t.a===n.a&amp;&amp;t.b===n.b&amp;&amp;t.c===n.c&amp;&amp;t.d===n.d&amp;&amp;t.e===n.e&amp;&amp;t.f===n.f}const K=new Map([]);function Q(t,n,e,i){K.set(t,[0,n,e,i])}function R(t,n,e){n[3]||(n[3]=!1),K.set(t,[1,n,e])}function W(t,n){return n&amp;&amp;n.length?n.map((n=&gt;Y(t,n[0],n[1],n[2],n[3]))):null}function Y(t,n,e,r,s){const u=K.get(n);if(!u)throw"Unknown property";if(2===u[0])return new $(W(t,e),p(r,t.d,t.s));if(r=u[2]?u[2](r,t):r,s=p(s,t.d,t.s),0===u[0]){const n=function(t,n,e){if(!t)return null;for(const r of t)r[0]=r[0]/n.s,e&amp;&amp;(r[1]=e(r[1],n)),r[2]=i(r[2]);return t.sort(f)}(e,t,u[3]);return new g(u[1],n,r,s,function(t){return t&amp;&amp;3===t.length?t.pop():null}(s))}return new M(u[1],W(t,e),r,s)}function tt(t,n){return"string"==typeof t?t:n.t[t]}Q(0,[P,O,J]),Q(1,[j,O,J]),Q(2,[E,O,J]),Q(3,[P,X,J],tt),Q(4,[j,X,J],tt),Q(5,[E,X,J],tt),Q(6,[Z,V,U]),Q(7,[C,V,U]),Q(8,[Z,T,U],tt),Q(9,[C,T,U],tt),Q(12,[L,d,J],null,(function(t,n){return"string"==typeof t?t:n.t[t]})),Q(10,[function(t,n,e){return e&lt;=0?t:e&gt;=1?n:[G(t[0],n[0],e),G(t[1],n[1],e),G(t[2],n[2],e),E(t[3]??1,n[3]??1,e)]},function(t){return null==t[3]||1===t[3]?`rgb(${t[0]} ${t[1]} ${t[2]})`:`rgb(${t[0]} ${t[1]} ${t[2]} / ${t[3]})`},function(t,n){return t[0]===n[0]&amp;&amp;t[1]===n[1]&amp;&amp;t[2]===n[2]&amp;&amp;(t[3]??1)==(n[3]??1)}]),Q(11,[L,function(t,n){return t?`url('#${n}:${t}')`:"none"},J],(function(t,n){return n.p})),R(13,[function([t,n,e,i,r,s],u){return function(t,n,e,i,r,s,u){if(2===t.length)return I(t[0],t[1],e,i[0],i[1],r,s,u[0],u[1]);const[o,l]=function(t,n){t*=n[1];let e=0;const i=n[0].getPointAtLength(t);if(n[2]){let r;t+.01&gt;n[1]?(r=n[0].getPointAtLength(t-.01),e+=180):r=n[0].getPointAtLength(t+.01),e+=180*Math.atan2(r.y-i.y,r.x-i.x)/Math.PI,n[2]&lt;0&amp;&amp;(e+=180)}return[i,e]}(n,t);return I(o.x,o.y,e+l,i[0],i[1],r,s,u[0],u[1])}(u,t,n,e,i,r,s)},z,H],(function(t){return t?"string"==typeof t[0]?function(t,n){const e=document.createElementNS("http://www.w3.org/2000/svg","path");return e.setAttribute("d",t),[e,e.getTotalLength(),n]}(t[0],t[1]):t:[0,0]})),R(14,[function([t,n,e]){return function(t,n,e){return(new DOMMatrix).translateSelf(t[0],t[1]).rotateSelf(n).scaleSelf(1,e).translateSelf(-t[0],-t[1])}(t,n,e)},z,H]),K.set(15,[2]),R(16,[function(t,n){return q=0,N=t,n.replace(F,D)},d,J,!0],tt),R(17,[function([t,n,e]){return function(t,n,e){if(!(e[0]||e[1]||e[2]||e[3]))return`M0 0h${t}v${n}h-${t}z`;const i=t&amp;&amp;n?Math.min(t/(e[0]+e[1]),n/(e[1]+e[2]),t/(e[2]+e[3]),n/(e[3]+e[0]),1):0,r=[];let s=e[0]*i,u=s,o=0;r[0]=`${u} ${o}`;let l,h,c,f=1;for(let a=1;a&lt;8;a++)l=(a+6)%8,s=e[b[a]]*i,h=t*w[a]+y[a]*s,c=n*w[l]+y[l]*s,!s||a%2?c===o?h!==u&amp;&amp;(r[f++]="h"+(h-u)):r[f++]="v"+(c-o):r[f++]=`a${s} ${s} 0 0 1 ${h-u} ${c-o}`,u=h,o=c;return s&amp;&amp;(r[f]=`a${s} ${s} 0 0 1 ${s-u} ${-o}`),`M${r.join("")}Z`}(t,n,e)},d,J]),R(18,[function([t,n,e,i]){return function(t,n,e,i){i=i*_-A;const r=2*Math.PI/t,s=[];let u,o,l,h,c,f,a=n*Math.cos(i),p=n*Math.sin(i);if(s[0]=`${a} ${p}`,!e){for(let e=1;e&lt;=t;e++)a=n*Math.cos(i),p=n*Math.sin(i),s[e]=`${a} ${p}`,i+=r;return`M${s.join("L")}Z`}u=(e*=n/4)*Math.cos(i-A),o=e*Math.sin(i-A),i+=r;for(let d=1;d&lt;=t;d++)l=n*Math.cos(i),h=n*Math.sin(i),c=e*Math.cos(i-A),f=e*Math.sin(i-A),s[d]=`${a-u} ${p-o} ${l+c} ${h+f} ${l} ${h}`,a=l,p=h,u=c,o=f,i+=r;return`M${s.join("C")}Z`}(t,n,e,i)},d,J]),R(19,[function([t,n,e,i,r,s,u,o]){return function(t,n,e,i,r,s,u,o){const l=2*Math.PI/t,h=[(u+o)*_-A,(s+o)*_-A-l/2],c=[e,n],f=[];let a=c[0]*Math.cos(h[0]),p=c[0]*Math.sin(h[0]);f[0]=`${a} ${p}`;const d=2*t;if(!i&amp;&amp;!r){h[0]+=l,h[1]+=l;for(let t=1;t&lt;d;t++){const n=t%2;a=c[n]*Math.cos(h[n]),p=c[n]*Math.sin(h[n]),f[t]=`${a} ${p}`,h[n]+=l}return`M${f.join("L")}Z`}const g=[r*e*x,i*n*x];let M,$,m,v,S,y;M=g[0]*Math.cos(h[0]-A),$=g[0]*Math.sin(h[0]-A),h[0]+=l,h[1]+=l;for(let t=1;t&lt;=d;t++){const n=t%2;m=c[n]*Math.cos(h[n]),v=c[n]*Math.sin(h[n]),S=g[n]*Math.cos(h[n]-A),y=g[n]*Math.sin(h[n]-A),f[t]=`${a-M} ${p-$} ${m+S} ${v+y} ${m} ${v}`,a=m,p=v,M=S,$=y,h[n]+=l}return`M${f.join("C")}Z`}(t,n,e,i,r,s,u,o)},d,J]),R(20,[function(t){let n;for(let e=0;e&lt;t.length;e++){if(!m[e])continue;const i=m[e](t[e]);i&amp;&amp;(n?S(n,i,n):n=i)}return n||v},V,U]);class nt{constructor(t,n,e,i){this.t=t,this.p=n,this.c=e,this.v=i,this.iv=null==i}update(t){const n=this.t;let e=!1;if(this.v){const i=a(t,this.v);if(this.iv===i){if(!i)return!1}else{if(this.iv=i,n.style.display=i?"inline":"none",!i)return!0;e=!0}}if(this.c)for(const n of this.c)n.update(t)&amp;&amp;(e=!0);if(this.p)for(const[i,r]of this.p)r.update(t)&amp;&amp;(e=!0,n.setAttribute(i,r.toString()));return e}}function et(t,n){const e=n.r.getElementById("string"==typeof t[0]?t[0]:`${n.p}:${t[0]}`);if(!e)return null;let i;if(t[1])for(const r of t[1]){const t=Y(n,r[1],r[2],r[3],r[4]);if(!t)continue;const s="string"==typeof r[0]?r[0]:n.t[r[0]];t.isAnimated?(i??=new Map).set(s,t):e.setAttribute(s,t.toString())}const r=it(n,t[2]||null),s=p(t[3]||null,n.d,n.s);return i||r||s?new nt(e,i,r,s):null}function it(t,n){if(!n||!n.length)return null;let e;for(const i of n){const n=et(i,t);n&amp;&amp;(e??=[]).push(n)}return e}const rt=[null,t=&gt;t.play(),t=&gt;t.pause(),t=&gt;t.stop(),t=&gt;t.reverse(),t=&gt;t.restart(),t=&gt;t.toggle()];class st{constructor(t,n,e,i,r,s){this.alternate=!1,this.time=0,this._fo=null,this._to=0,this._frame=t=&gt;{null===this._fo&amp;&amp;(this._fo=t),this.seek((t-this._fo)*this.speed+this._to)&amp;&amp;(this._fi=requestAnimationFrame(this._frame))},this.root=t,this.targets=n,this.duration=e,this.repeat=i||1/0,this.alternate=!!r,s||=1,this.speed=Math.abs(s),this.direction=Math.sign(s)}seek(t){t=Math.round(t);const n=this.duration;if(t&gt;=n*this.repeat){let t=this.direction&lt;0?0:n;if(this.alternate&amp;&amp;(this.repeat-1)%2!=1||(t=n-t),this.time!==t)for(const n of this.targets)n.update(t);return!1}if(this.time===t)return!0;this.time=t;const e=Math.trunc(t/n);t%=n,this.alternate&amp;&amp;e%2==1&amp;&amp;(t=n-t),this.direction&lt;0&amp;&amp;(t=n-t);for(const n of this.targets)n.update(t);return!0}play(){this._fi||(this._fo=null,this._to=this.time,this._fi=requestAnimationFrame(this._frame))}pause(){this._fi&amp;&amp;(cancelAnimationFrame(this._fi),this._fi=0)}toggle(){this._fi?this.pause():this.play()}stop(){this.pause(),this.seek(0)}reverse(){this.direction=-this.direction,this._fo=null,this._to=this.time}restart(){this.stop(),this.play()}}function ut(t,n,e){e&amp;&amp;rt[e]&amp;&amp;t.root.addEventListener(n,(()=&gt;rt[e](t)))}if(void 0!==typeof window){const t="ExpressiveAnimatorPlayer";window[t]||(function(t){e=t}([h,function(t,n,e,i){return h(1-e,1-i,1-t,1-n)},function(t){return n=&gt;Math.ceil(n*t)/t},function(t){return n=&gt;1-Math.ceil((1-n)*t)/t},s,r(s),o,r(o),u,r(u),function(t=2){return t*=2*Math.PI,n=&gt;(n=t*(n-1),Math.sin(n)/n)},function(t=2){return t*=-2*Math.PI,n=&gt;(n*=t,1-Math.sin(n)/n)},l,r(l)]),window[t]=function(t,n,e){if(!t||t instanceof SVGSVGElement){const i=function(t,n="expressive="){if(!t)return null;let e=t.firstChild;for(;e;){const t=e.nodeType;if(8===t)break;if(3!==t)return null;e=e.nextSibling}if(!e)return null;const i=e.textContent;return i.substring(0,n.length)!==n?null:JSON.parse(i.substring(n.length))}(t||document.currentScript.closest("svg"));if(!i)return null;t=i[0],n=i[1],e=i[2]}if(!n)return null;const i=document.getElementById(`${t.prefix}:0`);if(!(i instanceof SVGSVGElement))return null;const r=function(t,n,e,i,r,s){return it({r:n,d:i,s:1,p:e,t:s,e:it},t)}(n,i,t.prefix,t.duration,0,e);if(!r)return null;const s=new st(i,r,t.duration,t.repeat,t.alternate,t.speed);return function(t,n=0,e){if(function(t,n){n&amp;&amp;(1!==n?2===n&amp;&amp;new IntersectionObserver((n=&gt;{for(const e of n)if(e.target===t.root)return void(e.isIntersecting?t.play():t.pause())}),{root:null,threshold:0}).observe(t.root):"complete"===document.readyState?t.play():document.addEventListener("readystatechange",(()=&gt;{"complete"===document.readyState&amp;&amp;t.play()})))}(t,n),!e)return;const i=["click","mouseenter","mouseleave"];for(let n=0;n&lt;3;n++)ut(t,i[n],e[n])}(s,t.load||0,t.actions),s})}}();

window["ExpressiveAnimatorPlayer"](
{"prefix":"eaf-bf5a","duration":5000,"speed":1,"load":2,"actions":[0,1,2]},
[[3,[[0,13,[[0,[[0,0,3],[1150,0.2672],[1800,0.2672,3],[2883,0.7681],[3700,0.7681],[4250,1]]],[0,[[0,0]]],[6,[[0,[1,1]]]],[0,[[0,0]]],[0,[[0,0]]],[6,[[0,[20.7596,8.5035]]]]],["m20.7645 8.5644l0.432 0.072l0 0q-0.4746 -0.1338 -0.808 -0.016l0 0l0.376 -0.056",0]]]]],
["transform"]
);</script></svg>