<?xml version="1.0" encoding="UTF-8"?>
<svg xmlns="http://www.w3.org/2000/svg" version="1.1" xmlns:xlink="http://www.w3.org/1999/xlink" viewBox="0 0 500 250">
  <defs>
    <style>
      .cls-1 {
        fill: #fff;
      }

      .cls-2 {
        fill: none;
      }

      .cls-3 {
        clip-path: url(#clippath);
      }
    </style>
    <clipPath id="clippath">
      <circle class="cls-2" cx="21" cy="21" r="21"/>
    </clipPath>
  </defs>
  <!-- Generator: Adobe Illustrator 28.7.1, SVG Export Plug-In . SVG Version: 1.2.0 Build 142)  -->
  <g>
    <g id="Layer_1">
      <g class="cls-3">
        <g>
          <path d="M-.59,58.44v-21.05c.2-.36.38-.73.59-1.09.18-.3.42-.54.81-.56.04,0,.08-.03.11-.05.29-.14.57-.3.87-.42,2.47-1.01,4.94-2.01,7.4-3.03.88-.37,1.82-.63,2.56-1.3.33-.31.71-.57,1.02-.9.31-.32.57-.69.86-1.04-.01-.01-.03-.03-.04-.04-.87.3-1.75.53-2.69.38-.73-.12-1.39-.36-1.92-.89-.05-.05-.06-.13-.09-.19.06-.02.13-.05.19-.05.35,0,.68-.09.98-.26.21-.12.37-.3.46-.55-1.33.06-2.35-.27-2.54-.84.36,0,.72.05,1.06,0,1.18-.2,1.69-1.35,1.11-2.38-.28-.49-.72-.81-1.16-1.13-.76-.55-1.43-1.17-1.84-2.04-.61-1.29-.64-2.63-.25-3.97.64-2.18,1.3-4.36,2-6.52.73-2.26,1.87-4.29,3.48-6.05.82-.89,1.69-1.72,2.75-2.32,1.24-.7,2.54-.95,3.91-.49.46.15.88.41,1.34.63,1.9-1.53,4.42-1.53,6.36-.43,1.44.81,2.52,1.97,3.31,3.41.47.86.87,1.75,1.3,2.63.64,1.3,1.33,2.59,1.92,3.92.82,1.84,1.16,3.79,1.18,5.8.01.88-.14,1.74-.47,2.56-.45,1.11-1.19,2-2.08,2.79-.06.05-.13.1-.16.16-.34.66-.61,1.34-.56,2.1.05.7.36,1.23,1.02,1.51.23.1.48.14.75.22-.66.54-1.39.53-2.2.38.31.28.62.45.99.51.15.03.3.06.46.09-.53,1.05-2.71,2.08-4.67.99.17.23.35.46.53.69.7.86,1.52,1.56,2.57,1.97.23.09.47.18.7.28,2.7,1.05,5.4,2.1,8.1,3.16.67.26,1.33.55,1.97.87.7.35,1.1.95,1.1,1.75,0,6.85,0,13.7,0,20.55v.28H9.91c-3.5,0-7,0-10.5,0h0ZM27.26,14.09s.01-.02.01-.02c-.02-.05-.04-.1-.06-.16-.5-1.29-.79-2.62-.73-4.02.02-.4.04-.8.05-1.2.02-1.07-.4-1.94-1.29-2.55-1.22-.82-2.59-1.18-4.04-1.25-.43-.02-.88.1-1.31.1-.74,0-1.47.07-2.19.23-2.27.5-4.63,2.3-4.73,5.62-.04,1.13-.11,2.27-.21,3.4-.09.98-.34,1.93-.86,2.79-.06.1-.1.23-.1.35,0,1.81.24,3.59.68,5.34.42,1.64,1.08,3.16,2.28,4.41.91.94,1.92,1.75,3.07,2.37,1.07.58,2.25.65,3.43.59,1.3-.07,2.41-.58,3.4-1.39.5-.41.97-.85,1.46-1.27.69-.6,1.19-1.33,1.58-2.15.53-1.11.87-2.29,1.12-3.49.27-1.33.47-2.68.45-4.05,0-.09-.02-.19-.07-.25-.51-.6-.9-1.27-1.24-1.97-.13-.28-.33-.39-.6-.44-1.16-.21-2.34-.27-3.52-.19-.39.03-.78.07-1.17.09-.18,0-.36-.03-.43-.23-.06-.18.01-.39.21-.51.14-.08.29-.14.44-.19,1.03-.29,2.08-.36,3.14-.38.47,0,.88.11,1.24.41h0ZM14.3,27.36s-.05,0-.07,0c.05.56.07,1.13.16,1.68.11.7.51,1.28.94,1.83.79,1.02,1.76,1.86,2.79,2.64.8.61,1.58,1.25,2.49,1.72.23.12.4.12.6-.04.73-.58,1.48-1.14,2.19-1.73.89-.74,1.74-1.51,2.42-2.45.54-.74,1.02-1.51,1.05-2.47.02-.43.04-.86.07-1.29-.58.54-1.12,1.07-1.7,1.57-.67.58-1.4,1.11-2.24,1.43-1.05.41-2.14.44-3.25.37-1.08-.07-2.04-.44-2.92-1.07-.92-.65-1.77-1.37-2.53-2.21h0ZM15.28,38.12c0,.67,2.84,13.6,3.01,14.03.03-.87.06-1.76.1-2.64.05-1.09.1-2.19.18-3.28.08-1.07.2-2.13.33-3.2.13-1.09.31-2.17.67-3.21.11-.3.08-.53-.09-.79-.35-.56-.68-1.14-1.02-1.72-.07.06-.11.09-.15.13-.64.6-1.28,1.19-1.92,1.79-.32.3-.41.29-.61-.1-.16-.32-.32-.65-.5-1.01h0ZM14.04,29.14c-.03.07-.05.12-.07.17-.28.82-.25,1.66-.1,2.49.16.92.36,1.84.57,2.75.17.74.33,1.49.59,2.2.27.74.66,1.44,1,2.16.03.06.07.11.12.18,1.33-1.31,2.66-2.56,4.26-3.51-.02-.02-.04-.04-.06-.05-1.7-.97-3.2-2.19-4.57-3.57-.79-.8-1.46-1.68-1.75-2.82h0ZM25.36,39.02c.09-.16.16-.29.23-.41.39-.66.52-1.41.69-2.14.4-1.77.92-3.52,1.1-5.33.07-.69-.05-1.35-.26-2.06-.29,1.12-.89,2.03-1.61,2.84-1.18,1.34-2.54,2.47-4,3.48-.08.05-.15.11-.24.17,1.53.96,2.82,2.17,4.1,3.45h0ZM23.13,51.33h.03c.86-4.03,1.71-8.07,2.57-12.11-.06.01-.07.03-.09.05-.15.27-.2.27-.43.06-.43-.41-.85-.83-1.29-1.24-.3-.28-.63-.55-.97-.85-.34.75-.67,1.46-.99,2.17-.03.07-.01.16,0,.24.14.57.32,1.13.41,1.71.17,1.12.32,2.24.43,3.37.1,1.09.16,2.2.21,3.29.05,1.1.07,2.2.11,3.3ZM30.28,18.73c-.05.44-.15.85-.06,1.29.05.25-.07.48-.24.67-.12.13-.25.25-.4.34-.14.09-.2.21-.24.37-.08.39-.17.78-.26,1.17-.05.22-.02.27.21.25.49-.05.89-.29,1.13-.71.47-.8.69-1.69.77-2.61,0-.06-.03-.14-.08-.17-.27-.2-.54-.39-.83-.59h0ZM10.78,18.89c-.21.17-.47.39-.73.6-.1.08-.13.17-.1.29.15.55.28,1.11.46,1.65.11.32.29.64.5.92.28.38.68.55,1.16.55-.11-.49-.23-.95-.3-1.42-.05-.28-.16-.48-.41-.63-.35-.21-.57-.52-.45-.97,0-.03,0-.07,0-.1-.04-.34-.09-.68-.12-.89h0Z"/>
          <path class="cls-1" d="M27.26,14.09c-.36-.3-.77-.42-1.24-.41-1.06.02-2.11.09-3.14.38-.15.04-.31.11-.44.19-.19.12-.27.33-.21.51.07.2.25.24.43.23.39-.02.78-.06,1.17-.09,1.18-.08,2.35-.02,3.52.19.27.05.47.16.6.44.34.7.73,1.37,1.24,1.97.05.06.06.17.07.25.02,1.37-.17,2.71-.45,4.05-.25,1.2-.59,2.37-1.12,3.49-.39.82-.9,1.55-1.58,2.15-.49.42-.96.87-1.46,1.27-.99.8-2.11,1.32-3.4,1.39-1.19.06-2.36,0-3.43-.59-1.15-.62-2.16-1.43-3.07-2.37-1.2-1.24-1.86-2.77-2.28-4.41-.44-1.75-.69-3.53-.68-5.34,0-.12.04-.25.1-.35.52-.86.77-1.8.86-2.79.1-1.13.18-2.27.21-3.4.11-3.31,2.46-5.12,4.73-5.62.72-.16,1.45-.23,2.19-.23.44,0,.88-.12,1.31-.1,1.45.07,2.83.43,4.04,1.25.89.6,1.31,1.47,1.29,2.55,0,.4-.03.8-.05,1.2-.06,1.4.23,2.73.73,4.02.02.05.04.1.06.16,0,0,0,.01-.01.02h0ZM16.12,14.84c.51.03,1.02.07,1.53.1.26.01.52.04.77,0,.12-.02.27-.15.31-.26.03-.1-.05-.28-.14-.35-.15-.12-.34-.22-.53-.27-1.11-.3-2.25-.39-3.39-.39-.21,0-.4.05-.57.17-.47.32-.86.71-1.15,1.21-.03.05-.03.13-.05.19.06,0,.14.02.19,0,.99-.3,2-.38,3.03-.41h0ZM16.98,16.62c.35.1.62.29.88.5.06.05.16.05.25.07-.01-.09.01-.21-.04-.26-.15-.17-.31-.35-.51-.46-.7-.42-1.46-.45-2.24-.28-.42.09-.79.29-1.09.59-.05.05-.05.14-.07.22.08,0,.17.04.24.01.16-.06.3-.16.45-.23.19-.09.39-.16.65-.25-.18.43-.06.73.24.95.28.21.59.21.89.04.35-.19.42-.51.35-.9h0ZM23.21,25.39c.09-.06.24-.12.26-.21.04-.19-.14-.19-.28-.23-.4-.11-.81-.21-1.21-.35-.32-.11-.64-.16-.96-.03-.33.14-.65.1-.98,0-.19-.05-.42-.08-.61-.03-.55.13-1.09.29-1.63.45-.06.02-.16.12-.15.16.02.07.1.16.17.18.11.03.24.02.35,0,.36-.08.72-.07,1.08,0,.57.11,1.15.18,1.73.13.72-.06,1.43-.34,2.21-.07h0ZM23.98,16.61c0,.69.3,1.06.84,1.02.23-.01.42-.1.57-.28.18-.22.2-.48.14-.78.32.12.63.27.94.41.08.03.19.01.28.01-.04-.09-.05-.2-.11-.26-.33-.3-.72-.48-1.16-.56-.69-.13-1.37-.12-2,.25-.2.12-.37.32-.52.5-.04.05.01.18.02.28.07-.03.17-.05.22-.1.22-.22.46-.4.77-.49h0ZM21.76,22.33c.08,0,.11.02.13.01.08-.04.15-.08.22-.12-.05-.07-.08-.17-.15-.19-.09-.04-.21-.05-.3-.02-.2.06-.39.15-.57.25-.37.19-.71.21-1.06-.04-.11-.08-.24-.15-.36-.2-.22-.09-.44-.1-.64.02-.06.04-.1.15-.09.22,0,.04.14.11.2.09.29-.07.54,0,.78.14.43.25.85.28,1.29.03.1-.05.2-.1.31-.13.1-.03.2-.05.26-.06h0ZM20.44,26.49s0-.01,0-.02c.15,0,.31,0,.46,0,.28-.02.56-.05.83-.09.06-.01.11-.13.16-.2-.08-.03-.17-.11-.25-.1-.73.15-1.46.13-2.19-.01-.18-.04-.36.06-.35.18.01.18.17.18.3.19.34.02.69.04,1.03.06h0ZM19.57,17.17s.02,0,.03,0c-.06.45-.11.9-.18,1.35-.06.37-.15.73-.21,1.09-.01.07.04.14.07.21.06-.05.14-.09.17-.15.04-.08.06-.19.07-.28.12-.77.24-1.55.35-2.32.01-.08.02-.18,0-.25-.03-.07-.1-.13-.16-.19-.04.07-.1.13-.12.2-.02.11,0,.22,0,.34h0ZM18.01,21.59c.02.51.19.81.51,1.02.11.07.24.08.31-.05.08-.15-.07-.17-.15-.23-.13-.1-.3-.23-.33-.37-.04-.21,0-.44.05-.65.04-.15.16-.27.23-.42.03-.06,0-.14,0-.21-.07,0-.14,0-.2.03-.05.03-.1.08-.12.14-.11.28-.22.57-.29.74h0ZM23.09,21.59c-.04-.12-.09-.33-.17-.52-.05-.12-.14-.23-.24-.31-.04-.04-.15,0-.22,0,.01.07.02.14.04.21.01.04.06.06.08.09.34.41.36,1.12-.21,1.3-.13.04-.13.2-.01.25.07.03.2.02.27-.03.31-.21.46-.51.47-.99h0Z"/>
          <path class="cls-1" d="M14.3,27.36c.76.84,1.61,1.56,2.53,2.21.88.63,1.84,1,2.92,1.07,1.11.07,2.2.04,3.25-.37.84-.33,1.56-.85,2.24-1.43.58-.5,1.12-1.03,1.7-1.57-.02.43-.05.86-.07,1.29-.04.96-.52,1.73-1.05,2.47-.68.94-1.54,1.71-2.42,2.45-.72.6-1.47,1.15-2.19,1.73-.2.16-.37.16-.6.04-.91-.46-1.69-1.11-2.49-1.72-1.02-.78-1.99-1.62-2.79-2.64-.43-.55-.83-1.13-.94-1.83-.09-.56-.11-1.12-.16-1.68.02,0,.05,0,.07,0h0Z"/>
          <path class="cls-1" d="M15.28,38.12c.18.37.33.69.5,1.01.2.4.29.41.61.1.64-.6,1.28-1.2,1.92-1.79.04-.04.08-.07.15-.13.34.58.67,1.16,1.02,1.72.17.26.19.49.09.79-.37,1.04-.55,2.12-.67,3.21-.13,1.06-.24,2.13-.33,3.2-.08,1.09-.13,2.18-.18,3.28-.04.88-.07,1.77-.1,2.64-.17-.43-3.01-13.36-3.01-14.03h0Z"/>
          <path class="cls-1" d="M14.04,29.14c.28,1.14.96,2.03,1.75,2.82,1.37,1.38,2.87,2.61,4.57,3.57.02.01.04.03.06.05-1.6.94-2.93,2.2-4.26,3.51-.04-.07-.09-.12-.12-.18-.34-.72-.73-1.42-1-2.16-.26-.71-.42-1.46-.59-2.2-.21-.91-.41-1.83-.57-2.75-.15-.83-.18-1.67.1-2.49.02-.05.04-.1.07-.17h0Z"/>
          <path class="cls-1" d="M25.36,39.02c-1.28-1.28-2.56-2.49-4.1-3.45.09-.06.17-.12.24-.17,1.46-1.01,2.82-2.15,4-3.48.72-.82,1.32-1.72,1.61-2.84.21.7.33,1.37.26,2.06-.18,1.82-.69,3.56-1.1,5.33-.17.73-.29,1.48-.69,2.14-.07.13-.14.25-.23.41h0Z"/>
          <path class="cls-1" d="M23.13,51.33c-.03-1.1-.06-2.2-.11-3.3-.05-1.1-.1-2.2-.21-3.29-.11-1.13-.26-2.25-.43-3.37-.09-.58-.28-1.14-.41-1.71-.02-.08-.03-.17,0-.24.32-.71.65-1.42.99-2.17.34.3.66.56.97.85.44.41.86.83,1.29,1.24.22.22.27.21.43-.06.01-.02.03-.04.09-.05-.86,4.04-1.71,8.08-2.57,12.12h-.03Z"/>
          <path class="cls-1" d="M30.28,18.73c.29.2.56.39.83.59.04.03.08.12.08.17-.08.92-.29,1.81-.77,2.61-.24.41-.64.66-1.13.71-.23.02-.26-.03-.21-.25.09-.39.18-.78.26-1.17.03-.16.09-.28.24-.37.15-.09.28-.22.4-.34.17-.18.3-.42.24-.67-.09-.43,0-.85.06-1.29h0Z"/>
          <path class="cls-1" d="M10.78,18.89c.03.21.07.55.12.89,0,.03.01.07,0,.1-.12.45.1.75.45.97.25.15.36.35.41.63.08.47.2.93.3,1.42-.47,0-.88-.16-1.16-.55-.2-.28-.38-.59-.5-.92-.19-.54-.31-1.1-.46-1.65-.03-.12,0-.21.1-.29.26-.21.52-.43.73-.6h0Z"/>
          <path d="M16.12,14.84c-1.03.03-2.04.1-3.03.41-.06.02-.13,0-.19,0,.02-.06.02-.14.05-.19.29-.5.68-.89,1.15-1.21.17-.12.36-.17.57-.17,1.15,0,2.28.09,3.39.39.19.05.38.15.53.27.09.07.17.26.14.35-.03.11-.19.24-.31.26-.25.03-.52,0-.77,0-.51-.03-1.02-.06-1.53-.1h0Z"/>
          <path d="M16.98,16.62c.07.39,0,.7-.35.9-.3.16-.61.17-.89-.04-.3-.22-.42-.51-.24-.95-.25.1-.45.17-.65.25-.15.07-.29.17-.45.23-.07.03-.16,0-.24-.01.02-.07.02-.17.07-.22.3-.3.68-.5,1.09-.59.77-.17,1.54-.14,2.24.28.19.12.35.29.51.46.05.05.03.17.04.26-.08-.02-.19-.02-.25-.07-.26-.21-.53-.4-.88-.5h0Z"/>
          <path d="M23.21,25.39c-.78-.27-1.49.01-2.21.07-.59.05-1.16-.02-1.73-.13-.36-.07-.72-.08-1.08,0-.11.02-.24.03-.35,0-.07-.02-.15-.11-.17-.18-.01-.04.08-.14.15-.16.54-.16,1.08-.32,1.63-.45.19-.04.42-.02.61.03.33.09.65.14.98,0,.32-.13.64-.08.96.03.4.14.8.24,1.21.35.14.04.32.04.28.23-.02.09-.18.15-.26.21h0ZM22.08,25c-.3-.12-.61-.22-.93-.12-.4.13-.79.14-1.19,0-.3-.1-.59-.04-.87.11,1,.24,1.99.24,2.99,0h0Z"/>
          <path d="M23.98,16.61c-.3.1-.55.27-.77.49-.05.05-.15.07-.22.1,0-.1-.06-.23-.02-.28.15-.19.32-.39.52-.5.62-.36,1.31-.38,2-.25.44.08.83.26,1.16.56.06.06.07.17.11.26-.1,0-.2.02-.28-.01-.31-.13-.61-.28-.94-.41.05.3.04.56-.14.78-.15.18-.34.27-.57.28-.55.03-.85-.33-.84-1.02h0Z"/>
          <path d="M21.76,22.33c-.06.01-.16.03-.26.06-.11.03-.21.08-.31.13-.44.24-.87.22-1.29-.03-.24-.14-.5-.21-.78-.14-.06.01-.19-.05-.2-.09,0-.07.04-.18.09-.22.2-.13.43-.11.64-.02.13.05.25.12.36.2.35.25.7.23,1.06.04.18-.1.38-.18.57-.25.09-.03.21-.01.3.02.07.03.1.13.15.19-.07.04-.14.09-.22.12-.02.01-.05,0-.13-.01h0Z"/>
          <path d="M20.44,26.49c-.34-.02-.69-.03-1.03-.06-.13,0-.29,0-.3-.19,0-.12.17-.22.35-.18.73.15,1.46.17,2.19.01.07-.02.16.06.25.1-.05.07-.1.19-.16.2-.27.05-.55.07-.83.09-.15.01-.31,0-.46,0,0,0,0,.01,0,.02h0Z"/>
          <path d="M19.57,17.17c0-.11-.01-.23,0-.34.01-.07.08-.14.12-.2.06.06.13.12.16.19.03.07.02.17,0,.25-.11.77-.23,1.55-.35,2.32-.02.1-.03.2-.07.28-.03.06-.11.1-.17.15-.02-.07-.08-.15-.07-.21.06-.36.16-.73.21-1.09.07-.45.12-.9.18-1.35,0,0-.02,0-.03,0h0Z"/>
          <path d="M18.01,21.59c.07-.17.17-.46.29-.74.02-.05.07-.11.12-.14.06-.03.13-.02.2-.03,0,.07.02.15,0,.21-.07.14-.19.27-.23.42-.05.21-.1.45-.05.65.03.14.2.27.33.37.09.07.23.08.15.23-.07.13-.2.12-.31.05-.32-.21-.49-.51-.51-1.02h0Z"/>
          <path d="M23.09,21.59c0,.48-.16.78-.47.99-.07.05-.19.06-.27.03-.12-.05-.12-.21.01-.25.57-.18.55-.89.21-1.3-.03-.03-.07-.06-.08-.09-.02-.07-.03-.14-.04-.21.08,0,.18-.04.22,0,.1.08.19.19.24.31.08.2.13.41.17.52h0Z"/>
          <path class="cls-1" d="M22.08,25c-1,.24-1.99.25-2.99,0,.29-.15.57-.21.87-.11.4.13.79.12,1.19,0,.32-.11.63,0,.93.12h0Z"/>
        </g>
      </g>
    </g>
  </g>
</svg>