<?xml version="1.0" encoding="UTF-8"?>
<svg id="Layer_1" xmlns="http://www.w3.org/2000/svg" xmlns:xlink="http://www.w3.org/1999/xlink" viewBox="0 0 1091.86 1480.43">
  <defs>
    <style>
      .cls-1 {
        fill: #fff;
      }

      .cls-2 {
        fill: none;
      }

      .cls-3 {
        clip-path: url(#clippath);
      }
    </style>
    <clipPath id="clippath">
      <circle class="cls-2" cx="547" cy="532" r="532"/>
    </clipPath>
  </defs>
  <g class="cls-3">
    <g>
      <path d="M0,1480.43C0,1302.65,0,1124.87,0,947.09c4.94-9.19,9.55-18.58,14.9-27.52,4.58-7.66,10.7-13.76,20.56-14.14.98-.04,1.94-.77,2.89-1.23,7.32-3.55,14.46-7.53,21.98-10.62,62.5-25.64,125.15-50.9,187.56-76.74,22.41-9.28,46.23-15.96,64.82-32.93,8.48-7.74,17.87-14.56,25.85-22.77,7.88-8.12,14.5-17.48,21.67-26.29-.32-.35-.65-.69-.97-1.04-22.09,7.66-44.41,13.45-68.08,9.56-18.39-3.02-35.27-9.21-48.75-22.67-1.21-1.21-1.61-3.22-2.39-4.86,1.63-.43,3.25-1.2,4.88-1.22,8.87-.1,17.18-2.21,24.85-6.66,5.44-3.15,9.25-7.72,11.75-13.82-33.57,1.62-59.61-6.93-64.47-21.16,9.06,0,18.25,1.24,26.98-.23,29.77-4.99,42.93-34.11,28-60.27-7.11-12.46-18.27-20.59-29.48-28.73-19.17-13.91-36.21-29.73-46.53-51.63-15.41-32.72-16.28-66.72-6.38-100.68,16.13-55.3,33.06-110.39,50.71-165.23,18.41-57.21,47.38-108.66,88.07-153.18,20.67-22.62,42.73-43.66,69.71-58.82,31.36-17.63,64.36-23.95,99.14-12.41,11.59,3.84,22.29,10.36,33.86,15.88,48.05-38.78,112-38.76,161.12-10.97,36.38,20.58,63.89,50.01,83.89,86.29,11.95,21.68,22.03,44.39,32.99,66.61,16.29,33.03,33.72,65.55,48.68,99.18,20.71,46.54,29.4,96.03,30.01,146.84.27,22.28-3.47,44.08-11.91,64.94-11.4,28.17-30.22,50.71-52.65,70.61-1.45,1.28-3.22,2.49-4.05,4.13-8.53,16.72-15.34,33.95-14.1,53.25,1.15,17.74,9.13,31.17,25.77,38.35,5.74,2.48,12.08,3.56,18.92,5.5-16.63,13.59-35.33,13.43-55.67,9.66,7.84,7.11,15.79,11.37,25.12,12.96,3.83.65,7.62,1.47,11.71,2.27-13.35,26.5-68.74,52.59-118.23,24.97,4.28,5.95,8.75,11.75,13.38,17.43,17.74,21.72,38.56,39.42,65,49.78,5.93,2.32,11.85,4.66,17.78,6.97,68.38,26.62,136.81,53.1,205.1,79.95,16.91,6.65,33.7,13.81,49.91,21.99,17.75,8.96,27.86,23.95,27.88,44.28.11,173.51.07,347.01.07,520.52v7.17h-6.38c-273.15,0-546.29,0-819.44,0-88.68,0-177.36.05-266.04.08ZM705.46,356.86c.14-.28.32-.48.27-.59-.46-1.32-.94-2.63-1.44-3.93-12.66-32.78-20.12-66.5-18.55-101.88.45-10.12,1.08-20.24,1.22-30.36.38-27.21-10.25-49.24-32.8-64.52-30.8-20.86-65.67-29.82-102.37-31.66-11.01-.55-22.17,2.49-33.26,2.48-18.72-.03-37.16,1.86-55.38,5.85-57.56,12.62-117.17,58.37-119.88,142.32-.93,28.75-2.87,57.49-5.38,86.14-2.19,24.93-8.55,48.86-21.74,70.58-1.55,2.55-2.49,5.9-2.5,8.88-.1,45.87,6.02,91,17.28,135.38,10.55,41.61,27.26,80.17,57.69,111.66,23,23.81,48.55,44.29,77.69,60,27.22,14.68,56.91,16.46,87.02,14.91,32.81-1.69,61.09-14.79,86.21-35.15,12.68-10.28,24.6-21.48,36.89-32.24,17.38-15.23,30.24-33.77,40.06-54.56,13.33-28.21,22.03-57.91,28.28-88.38,6.94-33.81,11.85-67.85,11.3-102.48-.03-2.16-.38-4.86-1.68-6.38-12.88-15.12-22.87-32.11-31.46-49.85-3.4-7.01-8.3-9.82-15.22-11.07-29.51-5.31-59.23-6.81-89.13-4.79-9.91.67-19.8,1.75-29.72,2.29-4.57.25-9.02-.76-10.86-5.86-1.61-4.48.37-9.87,5.25-12.82,3.44-2.07,7.3-3.64,11.18-4.75,25.99-7.44,52.67-9.23,79.55-9.67,11.86-.2,22.35,2.81,31.47,10.44ZM377.36,693.02c-.61.08-1.21.17-1.82.25,1.26,14.23,1.74,28.59,3.98,42.66,2.84,17.84,13.02,32.43,23.82,46.39,20.06,25.93,44.69,47.15,70.59,66.91,20.3,15.49,40.06,31.76,63,43.51,5.78,2.96,10.14,3.12,15.27-.97,18.44-14.72,37.43-28.78,55.57-43.86,22.43-18.63,44.11-38.2,61.31-62,13.58-18.79,25.74-38.36,26.72-62.64.44-10.86,1.1-21.71,1.66-32.71-14.64,13.57-28.46,27.11-43.08,39.73-17.1,14.76-35.4,28.04-56.68,36.31-26.57,10.31-54.31,11.24-82.34,9.4-27.3-1.79-51.69-11.13-73.91-27.01-23.21-16.58-44.91-34.81-64.08-55.98ZM402.12,965.83c.16,17.07,71.93,344.65,76.35,355.53.81-22.13,1.45-44.5,2.5-66.86,1.29-27.68,2.41-55.39,4.56-83.01,2.1-27.05,5.08-54.04,8.26-80.99,3.25-27.62,7.79-55.08,17.06-81.41,2.68-7.62,2-13.39-2.19-20.03-8.95-14.18-17.2-28.79-25.94-43.57-1.71,1.42-2.82,2.27-3.84,3.22-16.26,15.13-32.55,30.22-48.72,45.45-8.12,7.65-10.27,7.47-15.45-2.63-4.18-8.14-8.06-16.44-12.58-25.7ZM370.6,738.29c-.69,1.83-1.21,3.11-1.65,4.41-7.08,20.78-6.27,42.03-2.54,63.1,4.13,23.32,9.11,46.51,14.42,69.59,4.32,18.75,8.33,37.76,14.95,55.74,6.93,18.83,16.79,36.59,25.42,54.79.71,1.49,1.83,2.78,2.95,4.46,33.65-33.08,67.5-64.89,107.98-88.81-.49-.41-.97-.94-1.56-1.28-43-24.52-81.05-55.48-115.74-90.53-19.94-20.15-37.05-42.5-44.24-71.48ZM657.45,988.48c2.29-4.04,4.06-7.28,5.95-10.45,9.99-16.76,13.19-35.77,17.43-54.32,10.25-44.81,23.33-89.05,27.78-135.07,1.69-17.45-1.25-34.26-6.6-52.09-7.38,28.49-22.46,51.33-40.76,72.07-29.88,33.86-64.35,62.57-101.39,88.27-1.94,1.35-3.88,2.7-6.17,4.29,38.87,24.31,71.43,54.89,103.76,87.29ZM600.86,1300.43l.74.37c21.67-102.35,43.34-204.7,65.01-307.05-1.44.26-1.86.8-2.2,1.39-3.91,6.82-5.18,6.96-10.86,1.44-10.84-10.51-21.6-21.11-32.64-31.41-7.72-7.2-15.86-13.97-24.45-21.5-8.67,18.98-16.97,36.96-25.04,55.05-.74,1.66-.35,4.06.11,5.97,3.48,14.43,8.19,28.66,10.46,43.27,4.4,28.35,8.14,56.84,10.86,85.4,2.64,27.73,3.98,55.61,5.28,83.45,1.3,27.86,1.85,55.75,2.73,83.62ZM782.02,474.55c-1.36,11.17-3.87,21.63-1.6,32.59,1.31,6.33-1.77,12.24-6.2,16.92-3.03,3.2-6.33,6.33-10.03,8.66-3.67,2.32-5.18,5.3-6,9.31-2.03,9.88-4.34,19.71-6.61,29.54-1.29,5.56-.55,6.85,5.23,6.33,12.49-1.14,22.59-7.45,28.75-17.89,11.98-20.29,17.36-42.86,19.39-66.22.12-1.43-.78-3.54-1.91-4.38-6.78-5.02-13.76-9.77-21.04-14.86ZM287.99,478.54c-5.3,4.36-11.82,9.87-18.51,15.17-2.57,2.04-3.33,4.24-2.46,7.36,3.88,13.99,6.99,28.24,11.73,41.92,2.85,8.23,7.44,16.13,12.56,23.23,7.01,9.7,17.34,13.82,29.37,13.87-2.72-12.35-5.73-24.04-7.72-35.89-1.21-7.18-4.07-12.14-10.45-15.98-8.95-5.4-14.44-13.14-11.52-24.49.21-.82.04-1.78-.08-2.65-1.1-8.59-2.23-17.17-2.93-22.54Z"/>
      <path class="cls-1" d="M705.46,356.86c-9.12-7.63-19.62-10.64-31.47-10.44-26.88.44-53.56,2.23-79.55,9.67-3.87,1.11-7.74,2.68-11.18,4.75-4.88,2.94-6.86,8.34-5.25,12.82,1.84,5.1,6.28,6.12,10.86,5.86,9.92-.55,19.81-1.62,29.72-2.29,29.9-2.02,59.61-.53,89.13,4.79,6.92,1.25,11.82,4.06,15.22,11.07,8.59,17.73,18.58,34.73,31.46,49.85,1.29,1.52,1.64,4.22,1.68,6.38.55,34.63-4.36,68.67-11.3,102.48-6.25,30.47-14.96,60.16-28.28,88.38-9.82,20.79-22.68,39.33-40.06,54.56-12.29,10.76-24.21,21.96-36.89,32.24-25.12,20.36-53.41,33.46-86.21,35.15-30.12,1.55-59.81-.23-87.02-14.91-29.13-15.71-54.68-36.19-77.69-60-30.43-31.5-47.13-70.05-57.69-111.66-11.26-44.38-17.38-89.52-17.28-135.38,0-2.98.95-6.33,2.5-8.88,13.19-21.72,19.55-45.65,21.74-70.58,2.51-28.65,4.46-57.4,5.38-86.14,2.71-83.95,62.32-129.7,119.88-142.32,18.23-4,36.66-5.88,55.38-5.85,11.09.02,22.24-3.03,33.26-2.48,36.7,1.84,71.57,10.79,102.37,31.66,22.55,15.28,33.18,37.31,32.8,64.52-.14,10.12-.77,20.24-1.22,30.36-1.57,35.37,5.89,69.1,18.55,101.88.5,1.3.98,2.62,1.44,3.93.04.12-.14.31-.27.59ZM423.44,375.86c12.93.83,25.85,1.76,38.78,2.47,6.53.36,13.18,1.03,19.59.17,2.97-.4,6.92-3.68,7.78-6.48.76-2.48-1.29-7.13-3.59-8.97-3.87-3.1-8.7-5.56-13.51-6.86-28.13-7.59-56.9-9.85-85.94-9.77-5.41.01-10.1,1.25-14.47,4.27-11.84,8.18-21.88,18.09-29.12,30.63-.8,1.38-.85,3.2-1.24,4.82,1.64.05,3.42.55,4.9.09,25.04-7.71,50.79-9.67,76.83-10.35ZM445.12,421.13c8.76,2.48,15.6,7.28,22.19,12.7,1.54,1.27,4.16,1.22,6.29,1.77-.27-2.26.28-5.26-.97-6.64-3.89-4.3-7.95-8.81-12.84-11.76-17.71-10.68-37.03-11.35-56.66-7.12-10.54,2.27-20.03,7.22-27.74,14.94-1.21,1.21-1.17,3.67-1.71,5.56,2.05.17,4.38,1.03,6.11.36,3.94-1.55,7.48-4.07,11.36-5.78,4.91-2.17,10-3.93,16.4-6.4-4.52,11.01-1.48,18.4,6.08,24.05,7.13,5.33,14.9,5.26,22.54,1.08,8.96-4.89,10.72-12.97,8.94-22.75ZM602.96,643.24c2.17-1.61,6.18-3.05,6.69-5.29,1.11-4.83-3.52-4.86-6.98-5.78-10.24-2.73-20.53-5.37-30.54-8.82-8.2-2.83-16.21-4.12-24.34-.71-8.39,3.52-16.44,2.41-24.91.05-4.9-1.37-10.62-1.91-15.52-.79-13.92,3.17-27.64,7.27-41.35,11.3-1.6.47-3.97,3.12-3.7,4.14.5,1.83,2.51,4.09,4.29,4.53,2.81.69,6.05.47,8.95-.14,9.19-1.93,18.28-1.71,27.46.05,14.5,2.77,29.09,4.46,43.92,3.28,18.25-1.45,36.21-8.54,56.02-1.8ZM622.41,420.9c-.2,17.46,7.48,26.73,21.33,25.92,5.74-.34,10.68-2.58,14.37-7.07,4.65-5.65,4.97-12.18,3.67-19.73,8.18,3.1,15.84,6.93,23.72,10.27,2.08.88,4.79.27,7.21.34-.89-2.21-1.19-5.07-2.78-6.52-8.32-7.56-18.25-12.16-29.28-14.23-17.5-3.28-34.79-2.99-50.58,6.22-5.16,3.01-9.29,8.08-13.2,12.78-1.08,1.3.3,4.67.56,7.09,1.88-.84,4.21-1.23,5.56-2.59,5.56-5.6,11.72-10.06,19.41-12.47ZM566.36,565.67c1.9.23,2.75.61,3.29.35,1.91-.93,3.71-2.08,5.55-3.15-1.22-1.71-2.1-4.22-3.75-4.93-2.27-.97-5.37-1.34-7.67-.6-5,1.62-9.86,3.82-14.52,6.29-9.25,4.91-18.09,5.41-26.92-.97-2.84-2.06-5.99-3.83-9.22-5.19-5.45-2.27-11.17-2.65-16.32.61-1.48.94-2.59,3.78-2.38,5.58.12,1.02,3.49,2.71,4.98,2.35,7.23-1.71,13.68-.07,19.82,3.55,10.78,6.35,21.64,6.99,32.76.87,2.47-1.36,5.13-2.42,7.81-3.29,2.49-.8,5.12-1.17,6.57-1.48ZM532.84,671.14c0-.16.01-.32.02-.48,3.91,0,7.83.25,11.72-.05,7.05-.55,14.13-1.15,21.07-2.4,1.59-.29,2.69-3.29,4.02-5.05-2.09-.88-4.41-2.84-6.23-2.46-18.56,3.92-37,3.39-55.48-.37-4.49-.91-9.01,1.45-8.79,4.61.32,4.63,4.39,4.53,7.63,4.76,8.67.63,17.37.98,26.05,1.44ZM510.79,434.93c.25.03.5.06.74.09-1.5,11.42-2.75,22.89-4.58,34.25-1.49,9.26-3.82,18.38-5.44,27.63-.29,1.66,1.08,3.61,1.69,5.43,1.48-1.26,3.5-2.24,4.31-3.83,1.09-2.14,1.4-4.74,1.77-7.18,3.02-19.6,6.01-39.21,8.9-58.84.31-2.08.48-4.46-.25-6.32-.73-1.87-2.66-3.26-4.07-4.87-1.03,1.7-2.61,3.3-2.95,5.13-.5,2.75-.13,5.66-.13,8.5ZM471.3,546.88c.53,12.98,4.7,20.62,12.83,25.92,2.76,1.81,6.09,2.02,7.85-1.33,2.01-3.83-1.71-4.19-3.9-5.87-3.34-2.57-7.68-5.72-8.44-9.3-1.11-5.21-.03-11.17,1.3-16.52.95-3.78,4.1-6.96,5.79-10.63.69-1.5.1-3.59.1-5.4-1.73.25-3.65.14-5.14.87-1.32.65-2.6,2.08-3.16,3.47-2.89,7.13-5.54,14.36-7.23,18.8ZM599.83,546.91c-.93-2.94-2.2-8.3-4.34-13.27-1.28-2.97-3.63-5.71-6.12-7.82-1.11-.94-3.74-.09-5.69-.06.31,1.75.43,3.56,1.01,5.22.32.91,1.45,1.52,2.13,2.34,8.57,10.37,9.17,28.36-5.39,32.91-3.24,1.01-3.39,5.11-.28,6.39,1.88.78,5.06.5,6.73-.65,7.79-5.36,11.77-12.99,11.96-25.06Z"/>
      <path class="cls-1" d="M377.36,693.02c19.17,21.17,40.87,39.4,64.08,55.98,22.22,15.88,46.61,25.21,73.91,27.01,28.04,1.84,55.78.91,82.34-9.4,21.28-8.26,39.57-21.54,56.68-36.31,14.62-12.62,28.44-26.17,43.08-39.73-.57,10.99-1.22,21.84-1.66,32.71-.98,24.28-13.14,43.85-26.72,62.64-17.2,23.79-38.89,43.36-61.31,62-18.14,15.08-37.13,29.14-55.57,43.86-5.13,4.09-9.49,3.93-15.27.97-22.94-11.75-42.7-28.02-63-43.51-25.9-19.76-50.52-40.98-70.59-66.91-10.8-13.96-20.98-28.55-23.82-46.39-2.24-14.08-2.72-28.43-3.98-42.66.61-.08,1.21-.17,1.82-.25Z"/>
      <path class="cls-1" d="M402.12,965.83c4.52,9.26,8.4,17.56,12.58,25.7,5.19,10.1,7.33,10.29,15.45,2.63,16.17-15.23,32.47-30.32,48.72-45.45,1.02-.95,2.14-1.8,3.84-3.22,8.74,14.78,16.99,29.39,25.94,43.57,4.19,6.64,4.87,12.41,2.19,20.03-9.27,26.32-13.81,53.79-17.06,81.41-3.17,26.95-6.15,53.94-8.26,80.99-2.15,27.62-3.26,55.33-4.56,83.01-1.05,22.36-1.69,44.74-2.5,66.86-4.42-10.88-76.19-338.47-76.35-355.53Z"/>
      <path class="cls-1" d="M370.6,738.29c7.19,28.98,24.3,51.33,44.24,71.48,34.69,35.05,72.74,66.01,115.74,90.53.59.34,1.07.87,1.56,1.28-40.49,23.93-74.33,55.73-107.98,88.81-1.12-1.67-2.24-2.97-2.95-4.46-8.63-18.2-18.49-35.96-25.42-54.79-6.62-17.98-10.63-36.99-14.95-55.74-5.31-23.08-10.29-46.27-14.42-69.59-3.73-21.08-4.54-42.32,2.54-63.1.44-1.31.96-2.59,1.65-4.41Z"/>
      <path class="cls-1" d="M657.45,988.48c-32.33-32.4-64.89-62.98-103.76-87.29,2.29-1.59,4.23-2.94,6.17-4.29,37.04-25.7,71.51-54.41,101.39-88.27,18.3-20.75,33.38-43.58,40.76-72.07,5.35,17.83,8.28,34.63,6.6,52.09-4.44,46.01-17.52,90.26-27.78,135.07-4.24,18.55-7.44,37.56-17.43,54.32-1.89,3.17-3.66,6.41-5.95,10.45Z"/>
      <path class="cls-1" d="M600.86,1300.43c-.88-27.88-1.43-55.77-2.73-83.62-1.3-27.84-2.64-55.71-5.28-83.45-2.72-28.56-6.46-57.05-10.86-85.4-2.27-14.61-6.98-28.84-10.46-43.27-.46-1.91-.85-4.31-.11-5.97,8.07-18.09,16.37-36.08,25.04-55.05,8.6,7.53,16.73,14.29,24.45,21.5,11.04,10.3,21.8,20.9,32.64,31.41,5.68,5.51,6.96,5.38,10.86-1.44.34-.59.76-1.13,2.2-1.39-21.67,102.35-43.34,204.7-65.01,307.05l-.74-.37Z"/>
      <path class="cls-1" d="M782.02,474.55c7.28,5.09,14.26,9.84,21.04,14.86,1.13.84,2.03,2.95,1.91,4.38-2.03,23.36-7.41,45.93-19.39,66.22-6.16,10.44-16.26,16.75-28.75,17.89-5.78.53-6.52-.76-5.23-6.33,2.27-9.83,4.58-19.66,6.61-29.54.82-4.01,2.33-6.99,6-9.31,3.7-2.33,7-5.46,10.03-8.66,4.43-4.68,7.51-10.58,6.2-16.92-2.27-10.95.24-21.42,1.6-32.59Z"/>
      <path class="cls-1" d="M287.99,478.54c.7,5.36,1.83,13.95,2.93,22.54.11.88.29,1.83.08,2.65-2.92,11.36,2.57,19.09,11.52,24.49,6.37,3.85,9.24,8.8,10.45,15.98,2,11.85,5.01,23.54,7.72,35.89-12.03-.05-22.36-4.17-29.37-13.87-5.12-7.1-9.71-15-12.56-23.23-4.74-13.69-7.85-27.94-11.73-41.92-.87-3.13-.11-5.33,2.46-7.36,6.68-5.3,13.2-10.8,18.51-15.17Z"/>
      <path d="M423.44,375.86c-26.04.69-51.79,2.65-76.83,10.35-1.48.46-3.26-.04-4.9-.09.4-1.62.44-3.43,1.24-4.82,7.24-12.54,17.27-22.45,29.12-30.63,4.36-3.01,9.05-4.25,14.47-4.27,29.04-.08,57.82,2.18,85.94,9.77,4.81,1.3,9.64,3.76,13.51,6.86,2.3,1.84,4.35,6.49,3.59,8.97-.86,2.79-4.81,6.08-7.78,6.48-6.41.86-13.05.19-19.59-.17-12.93-.71-25.86-1.63-38.78-2.47Z"/>
      <path d="M445.12,421.13c1.79,9.78.02,17.86-8.94,22.75-7.65,4.18-15.41,4.25-22.54-1.08-7.56-5.65-10.61-13.03-6.08-24.05-6.41,2.48-11.49,4.23-16.4,6.4-3.88,1.72-7.43,4.24-11.36,5.78-1.72.68-4.05-.19-6.11-.36.54-1.88.5-4.35,1.71-5.56,7.71-7.72,17.2-12.67,27.74-14.94,19.62-4.22,38.95-3.55,56.66,7.12,4.89,2.95,8.96,7.46,12.84,11.76,1.24,1.38.69,4.38.97,6.64-2.12-.56-4.75-.51-6.29-1.77-6.59-5.42-13.43-10.22-22.19-12.7Z"/>
      <path d="M602.96,643.24c-19.81-6.73-37.77.35-56.02,1.8-14.83,1.18-29.42-.51-43.92-3.28-9.18-1.75-18.27-1.98-27.46-.05-2.9.61-6.14.83-8.95.14-1.78-.44-3.79-2.7-4.29-4.53-.28-1.02,2.09-3.67,3.7-4.14,13.71-4.03,27.43-8.14,41.35-11.3,4.89-1.11,10.61-.57,15.52.79,8.46,2.36,16.51,3.47,24.91-.05,8.13-3.4,16.14-2.12,24.34.71,10.01,3.45,20.3,6.09,30.54,8.82,3.46.92,8.08.95,6.98,5.78-.51,2.24-4.52,3.68-6.69,5.29ZM574.46,633.25c-7.56-3-15.34-5.69-23.55-2.95-10.08,3.37-19.95,3.5-30.14.23-7.61-2.44-14.87-1.11-22.15,2.81,25.31,6.15,50.48,6.06,75.84-.09Z"/>
      <path d="M622.41,420.9c-7.69,2.41-13.86,6.88-19.41,12.47-1.35,1.36-3.68,1.76-5.56,2.59-.25-2.42-1.64-5.78-.56-7.09,3.91-4.7,8.03-9.77,13.2-12.78,15.79-9.2,33.08-9.5,50.58-6.22,11.02,2.07,20.95,6.67,29.28,14.23,1.59,1.44,1.89,4.31,2.78,6.52-2.42-.07-5.13.54-7.21-.34-7.87-3.34-15.54-7.17-23.72-10.27,1.3,7.55.98,14.08-3.67,19.73-3.69,4.49-8.64,6.73-14.37,7.07-13.85.81-21.53-8.46-21.33-25.92Z"/>
      <path d="M566.36,565.67c-1.45.31-4.08.68-6.57,1.48-2.68.87-5.35,1.93-7.81,3.29-11.13,6.12-21.98,5.48-32.76-.87-6.14-3.62-12.59-5.26-19.82-3.55-1.49.35-4.86-1.33-4.98-2.35-.21-1.8.9-4.64,2.38-5.58,5.15-3.26,10.88-2.88,16.32-.61,3.24,1.35,6.38,3.13,9.22,5.19,8.83,6.38,17.67,5.88,26.92.97,4.65-2.47,9.52-4.67,14.52-6.29,2.3-.74,5.4-.37,7.67.6,1.65.71,2.53,3.22,3.75,4.93-1.84,1.07-3.64,2.22-5.55,3.15-.53.26-1.38-.12-3.29-.35Z"/>
      <path d="M532.84,671.14c-8.68-.46-17.38-.81-26.05-1.44-3.23-.23-7.31-.13-7.63-4.76-.22-3.16,4.3-5.52,8.79-4.61,18.48,3.76,36.93,4.29,55.48.37,1.82-.39,4.14,1.58,6.23,2.46-1.33,1.75-2.43,4.76-4.02,5.05-6.94,1.25-14.02,1.85-21.07,2.4-3.88.31-7.81.05-11.72.05,0,.16-.01.32-.02.48Z"/>
      <path d="M510.79,434.93c0-2.84-.37-5.75.13-8.5.34-1.83,1.92-3.43,2.95-5.13,1.41,1.6,3.34,3,4.07,4.87.73,1.86.56,4.25.25,6.32-2.9,19.62-5.88,39.23-8.9,58.84-.38,2.44-.69,5.04-1.77,7.18-.81,1.6-2.83,2.58-4.31,3.83-.61-1.82-1.98-3.77-1.69-5.43,1.62-9.24,3.95-18.37,5.44-27.63,1.83-11.37,3.08-22.83,4.58-34.25-.25-.03-.5-.06-.74-.09Z"/>
      <path d="M471.3,546.88c1.68-4.43,4.34-11.66,7.23-18.8.56-1.38,1.84-2.81,3.16-3.47,1.5-.74,3.41-.62,5.14-.87,0,1.82.59,3.91-.1,5.4-1.69,3.67-4.85,6.85-5.79,10.63-1.34,5.34-2.41,11.31-1.3,16.52.76,3.58,5.1,6.73,8.44,9.3,2.19,1.69,5.91,2.05,3.9,5.87-1.76,3.36-5.09,3.14-7.85,1.33-8.12-5.3-12.3-12.94-12.83-25.92Z"/>
      <path d="M599.83,546.91c-.19,12.07-4.17,19.7-11.96,25.06-1.67,1.15-4.84,1.42-6.73.65-3.11-1.28-2.95-5.38.28-6.39,14.56-4.55,13.96-22.54,5.39-32.91-.68-.82-1.81-1.42-2.13-2.34-.58-1.66-.7-3.47-1.01-5.22,1.94-.04,4.58-.89,5.69.06,2.49,2.11,4.84,4.85,6.12,7.82,2.15,4.97,3.41,10.33,4.34,13.27Z"/>
      <path class="cls-1" d="M574.46,633.25c-25.36,6.15-50.53,6.24-75.84.09,7.28-3.92,14.54-5.26,22.15-2.81,10.19,3.27,20.06,3.14,30.14-.23,8.21-2.75,15.99-.05,23.55,2.95Z"/>
    </g>
  </g>
</svg>